P3
# Created using libcpp-common
64 64
255
15	55	155		15	56	154		17	57	153		16	56	153		15	56	154		14	55	155		14	55	154		15	56	154		15	56	154		14	55	155		15	56	154		15	56	154		14	55	155		15	56	154		15	56	154		17	56	154		17	56	153		16	56	154		16	55	154		15	55	155		14	55	155		14	55	155		13	54	156		15	56	155		13	54	156		14	53	157		11	53	158		13	53	157		14	55	155		13	55	156		15	55	155		15	54	155		14	54	156		14	54	156		14	54	156		13	54	156		14	56	155		16	56	154		15	55	155		14	56	155		15	54	157		12	54	157		12	56	155		14	55	155		17	57	153		13	56	155		18	57	152		15	56	154		12	55	156		12	55	156		15	56	154		16	56	154		16	56	154		15	55	154		15	55	154		14	55	155		15	55	154		14	55	155		14	55	155		14	54	155		15	55	155		15	56	155		14	55	155		14	55	155
14	55	155		15	56	154		16	56	153		15	56	153		14	56	154		15	55	154		15	55	154		14	55	154		14	55	155		14	55	155		15	56	154		15	55	154		15	55	154		14	55	155		14	55	155		15	55	155		15	55	155		16	56	154		17	56	154		17	56	154		17	56	154		14	55	155		15	55	155		16	54	155		17	56	155		15	54	156		14	53	157		17	54	155		15	54	156		12	55	156		14	55	155		15	55	155		14	54	156		12	53	157		14	54	156		13	54	157		13	55	156		16	55	155		15	55	155		15	56	155		16	54	156		14	55	156		13	55	155		14	55	155		13	55	156		12	54	157		12	54	156		14	55	156		13	55	156		13	55	156		15	55	155		16	56	154		16	56	154		15	55	155		15	55	154		14	55	155		15	55	154		14	55	154		15	55	154		14	54	155		15	55	155		15	55	154		15	55	154		14	55	155
15	55	154		16	56	154		16	56	153		16	56	153		16	56	153		17	56	153		14	55	155		14	55	154		15	55	155		16	56	154		16	56	154		15	55	155		15	55	155		15	55	155		15	55	155		14	55	156		13	55	156		14	55	155		14	55	155		15	55	155		14	55	155		13	54	156		15	56	154		15	55	155		13	54	157		12	55	157		12	54	157		15	55	155		15	54	154		13	55	155		14	55	155		15	55	156		13	54	156		14	55	155		15	55	155		13	54	156		14	54	156		17	55	154		16	56	155		14	55	156		14	53	157		14	55	155		13	55	155		15	55	155		14	55	156		14	55	155		14	55	155		15	56	155		15	55	155		17	56	154		16	55	154		16	56	154		17	56	154		15	55	155		16	56	154		16	55	154		15	55	154		14	54	155		14	55	155		14	55	155		15	55	154		15	55	154		16	55	154		14	55	155
15	55	154		13	55	155		14	55	155		14	55	155		15	56	154		16	55	154		15	55	155		15	55	154		14	55	155		16	56	154		14	55	155		15	55	155		15	55	155		15	55	155		14	55	155		14	55	155		14	55	155		14	55	155		14	55	155		14	55	155		14	55	155		13	55	156		16	56	154		14	56	155		13	55	156		12	55	157		13	55	156		16	55	155		17	56	153		14	56	155		15	56	154		15	56	154		13	55	156		15	56	155		14	56	155		15	56	155		14	55	155		14	55	155		13	55	156		14	54	156		13	52	158		13	54	157		12	55	155		14	55	155		13	54	156		13	55	156		13	55	156		14	55	156		14	55	155		16	56	154		15	55	155		15	55	155		15	55	154		14	54	155		15	55	155		16	55	155		14	54	155		14	55	155		15	55	154		15	54	155		17	56	154		15	55	155		14	54	156		13	54	156
14	56	155		14	56	155		14	55	155		14	55	154		14	55	155		16	55	154		16	56	154		16	56	154		16	55	154		16	56	154		16	56	154		15	55	155		16	56	154		16	56	154		16	55	155		14	55	155		15	56	155		14	55	155		14	54	156		16	55	155		17	56	154		15	55	155		15	56	154		16	56	155		15	55	155		14	55	155		13	55	156		16	55	155		16	55	154		14	55	155		14	55	155		15	55	155		13	54	156		13	54	156		14	54	156		15	55	156		17	56	154		19	57	154		16	56	155		18	56	154		15	54	156		13	54	156		14	55	155		14	54	155		14	54	156		15	55	155		15	54	155		15	55	155		14	55	155		14	55	156		15	55	155		16	56	154		15	55	155		15	55	155		15	55	155		16	55	155		15	55	155		15	55	154		17	56	154		14	54	155		15	55	155		14	55	156		14	54	156		14	55	155
16	56	153		17	57	153		15	55	154		14	55	155		14	56	155		16	56	154		15	55	154		16	56	154		14	55	155		14	55	155		15	55	155		16	55	154		17	55	154		17	56	154		17	56	154		15	55	155		13	55	156		13	55	156		13	54	157		14	55	156		14	55	155		14	55	156		13	55	156		16	56	154		17	56	154		16	55	154		17	56	154		16	55	154		16	55	154		16	55	154		13	54	156		13	55	157		13	54	156		13	53	157		13	54	157		15	54	156		41	62	144		44	64	144		40	63	145		39	65	142		21	57	155		15	54	156		14	55	155		14	54	156		13	54	156		14	55	155		16	55	154		15	55	155		14	55	156		13	54	156		15	55	155		15	55	155		14	55	155		14	55	155		15	55	155		16	55	155		15	55	155		14	55	155		14	55	155		11	54	157		13	54	156		15	55	155		14	55	155		14	55	156
15	56	154		15	56	154		14	55	155		15	55	155		15	56	154		16	55	154		17	55	154		15	55	155		14	55	155		14	55	155		15	55	155		15	55	155		17	56	154		16	56	154		15	55	155		15	55	155		14	55	155		13	55	156		15	55	155		15	55	155		15	55	155		14	54	156		16	56	155		41	63	144		46	64	143		41	63	144		44	65	146		43	66	147		33	62	147		18	56	154		18	55	154		18	55	154		17	55	154		17	55	155		17	54	155		35	61	149		243	224	120		249	228	105		247	223	107		243	224	119		56	77	136		17	54	156		14	55	156		15	56	155		13	55	156		14	56	155		16	56	154		14	55	156		14	55	155		13	56	155		16	56	154		16	56	154		16	56	154		14	54	156		15	55	155		16	55	155		16	55	155		15	55	155		15	55	155		14	55	156		16	55	155		17	55	155		14	54	156		15	54	156
15	56	154		15	56	154		15	55	155		14	55	155		15	55	155		16	55	154		16	55	154		13	54	156		14	55	155		15	55	155		15	55	155		16	56	154		17	56	154		16	56	154		14	55	155		14	54	156		16	56	155		14	55	156		17	55	155		17	55	154		16	54	156		17	54	155		39	67	149		238	224	124		247	226	110		249	225	108		249	225	105		249	225	109		245	223	119		56	78	134		39	66	143		40	66	147		19	56	154		17	55	155		17	55	154		43	66	145		245	227	109		251	229	93		251	231	91		248	224	94		240	223	122		52	76	138		20	57	153		13	55	157		13	54	157		12	53	158		16	54	156		15	54	156		14	55	156		16	56	154		15	56	154		14	55	155		15	54	155		14	54	156		14	55	156		15	55	155		16	55	154		14	54	156		14	55	155		13	54	156		17	55	154		14	55	155		16	55	155		15	55	155
14	55	155		15	55	155		16	55	154		15	55	155		16	56	154		17	56	154		14	54	156		13	54	157		13	54	157		13	55	156		13	55	157		15	55	155		16	55	155		14	55	156		14	55	156		15	55	156		14	55	156		14	54	157		14	53	157		13	53	157		14	54	157		20	54	153		39	65	147		238	223	120		252	231	96		253	233	90		251	227	89		252	231	92		252	233	99		249	229	106		248	227	105		242	224	118		56	76	135		39	65	146		22	57	152		39	61	147		249	227	107		253	227	92		253	232	89		252	232	90		252	229	94		242	223	115		51	75	133		18	55	155		14	54	156		14	54	156		16	54	156		16	55	155		13	53	157		10	52	158		12	54	157		13	54	156		13	52	157		13	54	156		13	54	156		16	55	155		16	54	155		14	54	156		14	55	155		14	55	156		15	55	156		14	55	156		14	55	156		13	54	157
14	54	156		13	54	156		14	54	155		16	55	155		15	55	155		16	55	154		16	55	155		13	54	157		14	54	156		14	55	156		13	55	156		16	56	155		15	55	156		13	55	156		14	54	157		15	54	156		13	55	156		15	55	156		17	55	155		14	54	157		20	56	154		23	56	152		24	57	152		55	77	143		242	224	118		252	232	93		252	226	86		253	226	88		252	230	90		253	230	93		254	231	94		253	228	91		250	226	106		243	221	116		54	75	144		62	72	140		252	230	99		253	232	91		253	232	89		253	233	91		252	228	92		253	228	90		240	221	119		54	71	134		19	56	154		19	56	154		34	60	147		17	56	154		16	56	154		14	55	155		15	56	154		15	55	155		14	54	155		15	55	155		14	55	155		16	55	155		17	55	154		16	55	155		14	55	155		14	55	156		14	55	155		12	55	156		13	55	156		12	55	156
16	56	154		14	54	156		13	54	156		13	54	156		14	55	155		16	56	154		17	56	154		15	55	155		17	55	155		16	55	155		15	55	155		15	56	155		15	55	155		15	56	155		13	54	158		15	55	156		14	54	156		16	56	155		20	57	152		36	60	144		43	59	142		47	60	142		44	60	141		43	62	140		71	69	135		247	221	99		253	229	87		253	227	87		253	229	89		254	229	87		254	232	93		253	229	92		254	232	92		253	230	94		248	223	108		248	222	105		253	224	94		254	231	92		253	230	89		253	228	88		254	231	90		253	233	92		253	232	96		250	234	114		56	70	134		58	67	132		224	162	95		61	63	137		18	56	154		15	55	155		18	56	154		15	54	156		18	57	154		14	54	156		13	55	156		13	54	157		16	55	155		17	56	154		15	56	155		15	55	155		13	55	156		14	56	155		14	55	155		13	55	156
16	56	154		16	55	154		16	56	154		16	56	154		15	56	155		17	56	154		17	56	154		17	56	154		15	55	156		14	55	156		14	55	156		14	55	156		16	56	155		15	55	155		16	56	155		17	55	155		14	53	157		18	55	154		49	66	133		241	173	84		252	178	69		250	172	67		246	173	65		242	174	71		238	178	69		251	222	87		253	230	92		254	229	87		253	230	89		254	231	92		254	230	93		254	230	93		254	230	91		254	229	91		253	226	88		253	182	64		254	229	91		254	229	88		254	234	89		253	230	91		253	229	87		253	233	88		252	229	90		253	228	86		246	170	70		248	173	65		253	170	50		236	166	87		40	60	146		21	56	153		23	56	151		18	56	153		17	56	155		13	55	157		12	55	157		13	54	156		13	54	157		15	56	155		15	56	155		14	54	156		13	55	156		15	55	155		14	55	156		13	55	156
17	56	154		15	55	155		14	55	155		14	55	155		13	55	156		15	55	155		15	55	155		17	56	154		17	56	154		17	56	154		16	56	154		15	56	155		15	55	155		16	55	155		18	55	153		17	55	154		15	54	156		31	61	145		231	168	88		251	174	56		253	172	48		252	172	48		249	173	47		246	172	51		247	174	51		253	224	87		254	225	87		253	228	87		253	232	91		254	230	91		254	229	90		254	228	92		254	226	91		254	230	84		254	228	91		253	226	92		254	224	83		254	228	85		254	235	91		254	230	88		253	230	89		253	234	92		254	232	91		253	225	84		252	174	54		253	167	44		254	174	45		248	170	70		47	60	145		39	60	145		43	69	140		30	58	147		38	66	149		20	57	153		15	56	155		16	56	155		15	55	155		14	56	156		16	56	154		15	55	156		13	54	157		15	56	155		15	56	155		14	55	156
16	56	154		15	55	155		14	55	156		14	55	156		13	55	156		15	55	155		15	55	155		16	56	155		13	54	157		15	54	156		15	55	156		13	55	156		13	54	156		15	54	156		15	55	156		14	53	157		16	54	156		21	57	154		55	65	133		237	170	80		250	172	53		251	169	47		251	174	48		246	176	57		251	177	51		253	184	55		254	220	80		254	226	90		253	231	94		254	234	92		253	226	87		254	231	89		254	231	89		254	231	86		254	231	90		252	220	84		253	183	60		253	225	83		253	229	85		253	231	92		252	229	91		251	229	92		253	231	93		253	230	93		253	214	71		252	177	50		253	167	50		247	177	67		75	80	127		240	222	122		251	228	100		247	226	106		242	225	120		57	73	143		16	55	154		14	55	156		15	55	155		16	56	154		15	55	154		15	55	155		15	55	156		15	56	154		14	55	156		14	54	156
15	55	155		15	55	155		16	55	154		16	56	154		14	55	155		15	55	155		15	54	156		14	54	156		14	54	156		15	54	156		16	56	155		14	55	155		15	55	155		14	54	156		16	55	156		18	56	154		17	54	155		36	62	147		43	65	144		74	79	125		248	172	64		253	176	53		252	182	54		253	178	52		254	175	46		254	185	55		254	226	84		254	230	88		254	232	92		254	230	89		254	225	86		254	227	85		254	233	89		254	227	86		254	227	87		251	226	85		252	184	62		253	228	86		253	230	88		253	233	91		253	230	89		253	231	94		253	226	89		253	228	92		254	228	87		253	181	54		254	182	56		254	221	87		248	226	104		253	232	95		253	228	87		253	232	90		253	231	96		238	223	123		38	64	146		15	55	155		14	55	156		14	55	155		15	55	155		14	55	156		15	55	156		13	55	156		14	55	155		13	54	157
16	56	154		16	55	154		15	55	154		14	55	155		16	56	154		16	56	154		15	55	155		14	55	155		14	54	156		15	55	156		16	55	155		16	56	154		17	56	154		17	55	154		21	55	153		39	66	147		57	74	138		240	219	120		250	227	104		250	227	104		254	228	87		254	224	86		254	228	88		254	230	87		254	225	86		254	230	90		254	231	89		254	232	90		254	224	83		254	223	87		254	225	87		254	231	89		254	236	90		254	234	93		254	234	91		252	236	94		253	230	87		253	232	88		253	230	88		253	232	92		254	228	90		254	230	94		254	226	91		254	229	86		254	231	88		254	229	86		254	232	85		254	236	90		253	231	93		254	234	88		254	234	87		253	231	86		254	232	91		252	233	108		45	65	144		15	56	155		14	55	155		14	55	155		14	55	155		12	54	157		13	54	156		12	54	156		13	55	156		14	54	156
15	55	154		14	54	155		15	55	155		13	55	156		15	56	155		15	56	155		14	55	156		15	55	155		13	54	156		17	55	155		16	55	155		14	55	155		18	56	153		23	56	152		60	71	137		240	222	122		250	228	105		253	230	94		254	231	86		254	231	87		254	231	92		254	231	89		254	227	88		254	232	91		254	230	90		254	228	89		254	230	89		254	222	83		254	188	61		253	185	63		254	211	79		254	229	89		254	232	92		253	225	92		253	229	92		249	227	94		250	223	90		252	222	87		251	221	89		252	227	97		253	224	92		254	227	92		254	226	86		254	225	84		254	225	83		254	227	87		254	230	88		254	232	88		254	232	90		254	236	91		254	231	88		254	231	90		254	232	97		253	232	103		40	63	145		16	57	154		15	56	155		15	56	154		15	55	155		15	55	155		13	54	156		11	54	157		14	55	155		16	54	155
17	55	154		15	54	155		15	54	155		14	55	155		15	56	154		15	55	155		15	55	155		16	55	155		15	54	156		15	54	156		16	55	155		18	56	154		38	63	147		57	76	137		242	222	121		252	229	94		253	229	92		254	228	89		254	228	86		254	229	90		254	230	92		254	230	90		254	232	88		254	235	88		254	233	90		254	233	88		254	234	90		254	229	87		254	221	85		254	221	83		253	189	63		254	225	87		253	232	93		252	226	94		249	226	94		195	82	51		190	74	47		192	73	45		194	72	44		191	83	48		253	220	91		253	222	91		253	216	79		253	194	62		254	223	84		254	228	86		254	228	89		254	233	92		254	233	92		254	233	89		254	231	89		254	232	87		254	232	90		249	229	109		37	63	145		13	56	156		16	56	155		14	54	156		11	53	158		12	53	157		14	54	156		14	54	156		15	55	155		12	52	157
14	55	155		15	55	155		16	55	154		16	55	154		17	56	154		16	55	155		15	55	156		13	54	157		13	54	157		17	56	154		18	56	153		54	71	143		243	226	117		246	227	107		250	228	91		252	226	87		253	226	87		254	221	83		254	222	82		254	230	90		254	235	94		254	233	92		254	235	90		254	237	92		254	234	94		254	232	90		254	232	89		254	229	87		254	228	91		253	228	88		254	220	85		254	230	95		252	225	94		191	88	45		193	78	42		195	69	45		192	63	44		192	65	47		190	62	48		188	64	44		186	77	43		190	83	44		240	160	54		253	220	83		254	233	95		254	232	91		254	231	90		254	230	92		254	230	90		254	230	89		254	231	92		254	230	87		253	229	92		249	228	109		44	64	143		16	57	154		17	56	154		12	54	157		11	54	158		13	54	157		13	54	157		14	55	156		18	54	152		14	55	154
13	54	158		14	55	155		14	55	155		16	56	154		16	56	154		14	56	155		15	55	155		13	54	156		12	54	157		19	56	153		57	65	139		243	223	117		251	224	92		252	222	85		250	225	87		248	221	86		251	173	51		252	172	49		253	181	49		253	223	81		254	228	89		254	224	81		254	226	84		254	234	90		254	232	91		254	229	90		254	236	88		254	234	90		253	232	88		251	231	90		251	226	90		252	231	97		194	82	48		187	66	44		191	67	43		195	64	49		192	64	49		186	65	47		192	64	48		192	64	45		187	67	44		194	69	42		194	77	47		250	226	93		253	234	94		254	229	88		254	230	90		254	226	89		254	235	88		254	234	87		254	231	87		254	235	89		253	227	92		240	222	117		34	61	146		13	55	155		15	56	155		14	54	156		14	54	156		15	55	156		14	55	156		12	53	158		14	55	156		13	55	156
15	54	155		16	56	155		15	56	155		14	54	155		14	55	155		13	54	156		14	54	156		15	55	155		15	55	155		42	62	144		237	168	80		251	176	53		250	174	50		250	174	49		251	175	52		249	177	54		253	171	50		254	169	46		254	170	46		254	173	50		254	178	50		254	185	49		254	188	56		254	218	86		254	232	94		254	232	90		254	233	88		254	233	91		253	232	91		249	225	98		196	80	51		196	71	51		191	64	47		193	65	46		193	66	46		192	64	47		193	64	49		189	65	45		193	65	44		193	66	44		189	67	46		192	65	45		190	68	48		194	81	48		250	226	93		254	227	89		254	234	91		254	233	93		254	236	95		254	235	91		254	235	90		254	234	89		252	227	102		61	70	141		18	56	153		14	55	155		14	55	156		15	55	155		15	54	155		16	55	155		15	55	155		14	54	156		15	55	156		14	57	156
12	54	156		14	54	156		14	54	155		15	54	155		15	55	155		14	54	156		14	54	156		15	55	156		18	55	154		57	62	135		248	170	69		253	169	49		253	170	49		253	172	48		253	169	45		253	172	48		253	170	51		254	172	46		254	172	46		254	171	47		254	174	47		254	174	49		254	172	49		254	182	53		254	185	58		254	218	85		254	225	89		253	230	94		248	220	92		196	81	48		194	68	47		199	67	47		193	63	46		193	60	44		190	63	46		190	61	45		192	63	47		189	64	44		191	62	41		191	65	45		187	61	43		193	63	44		194	63	48		188	58	46		191	85	50		252	229	91		253	236	91		253	236	90		254	234	90		254	235	90		254	234	91		254	232	90		242	222	119		41	65	145		17	56	154		13	54	157		13	54	157		14	55	156		14	55	156		14	55	156		15	56	155		15	55	156		15	54	155		14	54	156
15	55	154		15	54	154		15	55	155		14	54	155		14	55	155		14	55	155		14	55	156		15	55	155		33	58	146		231	171	102		251	174	67		247	167	68		247	169	66		245	170	64		246	173	72		245	166	61		249	166	55		254	171	50		254	171	51		254	172	50		254	174	51		254	174	51		254	175	49		254	174	47		253	172	47		250	169	50		251	176	54		250	217	85		196	81	45		189	70	44		194	66	48		198	65	47		192	66	46		188	64	45		195	66	48		192	67	49		193	66	49		193	66	46		188	61	44		188	60	44		186	61	43		187	60	43		192	63	48		194	61	45		195	74	49		251	223	90		252	234	93		250	227	89		253	229	87		254	235	87		254	227	89		251	226	100		60	74	143		20	57	153		16	55	155		12	54	158		13	55	157		14	55	156		13	54	156		14	54	156		15	54	156		15	55	156		14	54	156		13	54	157
15	54	155		14	54	156		11	52	158		13	54	156		14	55	155		14	55	155		14	55	155		15	55	155		17	55	155		37	62	146		33	56	142		37	60	145		40	60	145		41	61	143		45	62	141		69	62	122		224	112	57		247	165	50		251	167	48		253	169	49		254	168	50		254	172	52		254	177	49		253	170	47		252	174	48		251	170	47		252	170	48		247	169	62		199	70	46		197	65	48		197	67	50		199	68	49		195	64	47		192	62	46		192	63	48		196	65	47		197	68	48		195	66	47		181	56	45		147	43	41		142	43	41		151	44	42		184	59	48		193	60	43		192	63	44		191	82	51		249	225	97		251	227	88		253	235	93		253	238	92		252	231	93		243	223	119		38	65	149		17	55	155		14	54	157		12	54	158		14	55	157		14	54	156		13	54	157		17	55	155		15	55	155		14	54	156		15	54	155		15	54	155
15	54	155		14	55	156		13	54	156		14	55	155		14	55	155		15	55	155		14	54	156		13	54	156		16	55	155		14	54	157		16	55	155		16	55	155		18	56	155		27	57	150		49	58	135		216	101	58		239	105	44		238	100	36		239	106	35		242	109	35		239	114	37		249	166	49		253	171	49		253	176	51		250	175	50		251	171	48		248	169	57		149	49	39		190	62	44		197	67	46		193	63	48		197	65	46		192	62	48		193	63	43		193	67	45		194	67	49		194	64	46		178	60	45		147	44	42		136	35	35		136	36	35		141	41	39		151	43	43		181	55	44		192	62	43		191	67	45		188	84	51		251	232	94		252	232	94		252	232	96		245	224	100		72	76	126		39	62	146		19	56	154		15	55	156		15	55	156		15	55	156		13	55	156		14	55	156		15	55	155		12	55	156		13	54	156		14	54	156		13	53	157
16	54	155		15	54	155		15	54	156		15	54	155		16	55	154		16	55	155		15	54	156		14	54	156		18	56	154		16	55	155		18	56	154		21	57	151		35	59	147		60	66	137		212	109	60		234	104	39		238	99	36		237	99	34		238	103	35		241	105	32		232	102	35		235	122	39		252	170	45		251	177	52		247	167	52		241	117	37		235	109	36		147	39	36		191	65	43		197	70	48		193	67	50		195	65	46		191	61	44		192	62	44		193	62	45		197	64	48		184	54	46		146	38	41		138	35	36		136	31	35		136	33	34		139	35	35		139	38	39		149	39	37		187	59	45		191	65	43		191	73	45		250	228	93		252	232	96		253	223	86		249	182	57		239	172	68		231	174	83		56	64	137		19	56	154		15	54	156		15	54	155		15	54	155		14	55	156		15	55	155		13	54	156		13	54	156		13	53	157		14	56	156
16	55	155		14	53	156		13	53	157		14	54	156		13	54	156		14	54	156		15	54	156		14	54	156		13	53	157		16	54	155		19	55	153		58	63	136		217	102	63		225	101	46		236	104	32		236	105	37		239	99	34		240	109	34		250	160	41		249	159	43		250	166	45		249	167	47		254	170	47		253	174	52		251	174	53		251	172	52		247	166	58		148	44	37		181	62	47		192	64	48		194	63	48		193	66	48		199	65	45		194	67	51		195	64	49		196	64	47		178	55	45		142	38	36		137	36	35		139	37	36		139	36	35		137	35	38		138	38	38		144	38	33		183	59	43		196	67	45		194	70	45		248	224	97		251	230	97		251	188	64		253	176	53		250	166	48		248	171	50		235	170	76		57	65	133		22	55	147		15	53	156		14	53	157		14	54	157		16	55	155		12	53	157		13	55	156		14	56	155		13	55	156
16	55	155		15	54	155		15	54	156		15	55	155		14	54	156		14	54	156		14	53	157		14	54	156		15	54	156		18	55	155		39	60	146		220	102	62		242	110	38		241	111	37		244	110	32		247	158	48		250	169	49		252	162	47		253	167	48		252	170	48		252	171	48		252	172	49		254	170	52		254	173	51		253	175	51		250	168	55		148	50	39		137	36	31		145	40	38		187	61	47		193	65	46		192	64	47		191	63	46		190	63	48		194	62	50		190	59	47		153	46	41		136	35	34		134	33	32		134	32	32		136	33	35		135	33	36		134	31	33		133	29	31		146	38	37		189	61	48		189	61	42		192	79	52		251	231	97		251	214	84		252	183	57		249	177	51		247	173	51		247	176	57		236	170	81		38	62	144		18	56	153		12	54	157		12	54	157		13	55	156		11	54	157		14	55	155		12	54	155		11	54	156
16	55	155		17	55	155		15	54	155		13	54	156		15	54	155		12	53	157		12	53	158		13	53	157		13	54	157		16	54	154		55	63	139		234	112	51		245	113	39		251	162	51		251	168	50		251	171	51		251	171	51		252	171	50		253	171	47		252	169	49		251	169	50		251	170	50		252	174	51		254	170	48		253	173	50		248	165	55		139	39	29		131	32	27		139	35	30		188	62	44		195	65	48		194	62	47		192	63	46		185	61	47		187	63	53		182	60	48		138	40	40		134	32	31		135	33	30		132	31	32		135	29	31		137	31	33		133	31	36		132	27	31		138	37	37		185	61	49		189	64	44		195	72	45		249	227	91		252	229	92		253	229	86		249	225	95		250	226	89		253	224	80		243	180	75		58	69	135		18	55	153		15	54	155		13	54	157		15	55	155		15	55	155		15	54	154		13	55	155		14	58	156
17	56	154		16	55	155		15	54	155		15	55	155		16	55	154		14	54	156		13	54	157		14	54	156		17	55	154		33	57	145		204	107	71		250	123	42		253	158	46		253	172	47		253	172	47		252	168	49		253	170	48		253	170	48		253	169	49		254	171	48		254	173	50		254	168	49		254	171	50		254	172	51		252	173	53		249	169	55		140	43	32		140	34	29		141	38	33		187	62	45		192	64	47		191	61	46		193	64	46		185	61	45		187	62	49		181	59	47		141	42	42		137	36	33		138	36	33		135	34	34		139	33	33		140	34	35		138	36	37		136	32	33		143	40	38		188	59	42		189	65	43		192	77	50		250	225	91		253	232	89		254	233	91		253	233	89		253	231	92		253	232	90		253	226	85		247	221	113		39	65	145		17	56	155		16	56	157		14	55	156		15	54	156		13	53	155		15	57	153		13	56	154
16	55	155		16	55	155		15	54	155		16	56	154		17	56	154		14	54	156		13	54	157		13	54	157		16	55	155		20	56	152		71	64	125		252	163	62		253	175	54		253	176	52		252	170	46		252	174	51		254	174	50		254	169	51		254	172	51		254	175	50		254	174	49		254	173	48		254	175	54		254	171	52		253	173	53		249	169	56		138	41	34		138	34	32		139	37	36		182	58	45		194	65	47		192	63	47		190	63	47		189	62	43		190	64	47		183	59	47		144	41	39		136	33	35		137	36	37		135	33	32		136	33	34		138	34	36		137	33	32		135	29	30		139	39	38		188	59	44		187	63	46		187	72	48		252	224	97		254	231	92		254	234	91		254	231	90		253	230	90		253	229	92		254	229	94		253	227	104		56	75	141		17	56	155		16	57	156		14	56	156		12	55	158		11	55	158		11	56	156		11	55	156
13	55	156		14	55	156		15	54	155		14	55	155		14	54	156		13	54	157		15	54	156		14	54	156		21	57	153		59	67	140		239	165	75		254	177	56		254	178	51		254	176	53		252	171	48		253	173	49		254	171	47		254	168	49		254	172	49		254	173	51		254	173	50		253	169	48		254	172	50		254	173	52		254	171	47		253	170	50		137	39	29		136	33	32		141	37	34		182	56	43		191	61	46		187	62	50		187	62	52		190	62	50		196	66	49		187	61	49		139	38	39		138	31	35		138	32	35		137	30	30		138	35	35		140	34	34		136	31	30		133	27	28		143	38	36		183	61	48		188	65	47		190	73	49		254	228	92		254	232	89		254	231	92		254	231	89		253	231	89		254	229	90		254	234	92		254	234	94		245	223	124		38	62	145		18	55	155		17	55	155		15	54	157		13	56	157		14	56	154		12	56	154
15	56	155		14	54	156		13	54	156		14	55	155		15	55	155		15	55	155		16	54	155		18	55	154		62	68	132		239	167	78		253	171	56		254	170	47		254	173	42		254	173	50		252	167	51		252	169	51		254	172	51		254	168	52		254	171	51		254	170	53		254	174	54		254	173	50		254	170	49		254	172	51		253	173	47		251	168	54		144	41	33		137	30	33		137	33	35		157	47	42		185	62	44		194	64	43		191	61	48		194	63	47		198	65	45		188	62	50		149	44	45		137	32	33		136	32	33		134	30	33		136	34	38		137	35	37		139	38	35		137	32	30		148	41	36		187	65	49		191	63	42		190	74	48		254	229	91		254	233	89		254	233	90		254	232	90		253	231	92		254	232	90		254	232	90		254	234	94		252	231	102		38	63	146		17	56	156		13	53	157		12	53	157		14	54	157		16	54	154		13	53	155
14	56	156		14	54	156		14	54	155		12	54	156		14	54	156		15	54	155		15	54	156		36	60	146		243	171	79		252	176	56		254	172	54		254	167	48		254	170	46		254	169	50		254	170	48		253	166	50		254	174	52		254	171	52		254	172	49		254	171	49		254	170	49		254	174	50		254	173	51		254	172	51		254	173	50		251	171	59		140	45	38		138	33	32		137	35	35		149	45	42		187	63	43		194	66	43		191	63	48		195	65	48		200	65	50		193	64	50		177	59	51		141	39	40		140	36	34		137	32	32		138	34	36		138	33	35		140	38	36		140	37	36		179	57	48		191	67	53		193	67	47		188	72	48		253	226	96		254	230	89		254	231	92		254	230	89		253	231	91		254	233	91		253	226	89		254	229	92		247	227	106		44	63	144		19	57	155		16	54	156		12	54	159		14	54	157		17	57	154		12	55	158
11	54	157		12	54	156		13	54	156		11	54	157		13	54	156		15	54	155		19	55	154		61	68	136		250	171	60		253	172	51		254	171	50		254	170	52		254	172	48		254	170	52		253	172	49		253	166	47		254	171	48		254	172	49		254	172	47		254	173	46		254	172	46		254	172	47		254	172	49		254	166	48		253	165	47		249	164	55		139	45	33		136	36	30		135	35	31		145	45	40		177	59	44		190	64	47		192	64	48		190	63	49		196	65	49		195	66	48		181	59	48		144	41	38		141	37	34		138	32	32		138	35	36		138	35	36		140	38	35		149	42	38		190	61	46		195	68	50		191	67	46		190	75	44		252	227	95		254	231	90		254	231	91		253	231	92		253	233	92		253	234	96		254	224	87		254	231	93		247	226	106		39	61	144		18	56	155		17	55	156		13	53	157		15	53	156		15	55	153		11	54	156
15	55	155		15	54	155		14	54	157		15	55	155		17	55	154		20	55	153		40	62	141		236	170	79		250	176	57		253	171	52		253	174	54		252	172	52		252	171	52		251	174	52		251	171	50		250	168	50		251	171	53		252	173	52		253	171	50		254	172	49		253	172	50		253	171	48		253	171	48		251	165	52		237	118	45		234	110	40		145	47	34		136	38	32		135	32	29		139	38	36		157	48	44		190	65	48		195	66	47		195	66	48		193	66	51		192	65	47		189	62	50		170	56	45		150	46	41		138	37	36		137	34	35		141	36	36		154	47	42		187	60	43		195	66	46		195	67	47		190	68	44		189	75	45		252	226	94		254	234	90		254	226	85		253	229	88		253	233	90		253	234	93		254	234	86		254	238	92		250	233	108		44	62	142		22	57	155		17	54	156		14	52	156		16	55	154		14	56	155		10	54	158
13	54	156		16	55	155		16	54	155		14	53	156		14	52	155		16	53	154		43	63	139		245	173	68		250	176	56		247	170	69		251	175	65		249	171	61		248	167	64		250	172	54		250	169	51		251	168	53		253	172	52		253	174	51		254	172	52		254	172	50		254	174	50		254	174	49		254	176	50		254	171	50		251	171	49		252	172	53		249	170	58		142	42	35		140	34	29		140	39	35		146	42	39		177	58	43		194	67	47		194	66	49		192	65	49		195	65	46		196	66	48		195	68	47		185	60	45		159	46	39		149	41	38		149	39	35		191	66	47		198	72	50		193	66	46		192	66	44		190	69	44		247	184	66		253	228	92		254	231	88		253	227	86		253	229	91		253	232	89		253	231	90		254	231	88		254	236	92		240	225	122		32	59	149		19	56	156		19	56	155		14	54	157		13	54	154		16	56	155		12	54	157
17	53	154		19	54	154		18	55	154		14	53	156		12	53	157		16	53	155		38	61	140		240	172	85		244	169	84		56	65	133		43	62	145		36	59	147		59	66	136		219	115	60		238	110	37		238	111	36		250	160	48		250	168	50		250	169	54		252	169	50		250	154	47		248	123	34		253	171	49		253	176	52		250	172	49		252	173	50		250	169	54		143	38	35		138	35	32		142	40	37		142	38	35		152	44	43		195	62	44		195	65	46		188	61	48		194	62	47		199	62	45		193	63	49		192	66	50		188	62	53		190	56	45		190	60	45		192	66	48		193	65	45		196	66	43		194	63	43		189	74	46		251	222	90		253	226	88		252	187	62		251	174	51		251	177	55		252	226	91		247	226	106		252	226	94		252	231	107		61	69	140		22	56	154		17	55	157		17	56	155		14	55	156		14	55	156		16	54	155		14	54	154
14	55	155		17	55	154		16	55	155		15	55	155		12	54	157		14	54	156		19	56	153		38	62	145		42	63	145		14	52	157		15	52	156		15	53	156		20	55	154		56	59	135		227	106	46		237	106	33		236	106	35		238	107	36		239	105	35		242	108	36		247	117	35		249	167	48		253	166	48		252	174	51		251	174	50		252	172	52		250	170	57		145	47	38		137	39	34		139	34	32		140	34	34		144	39	40		175	57	44		188	64	45		191	64	46		192	64	47		200	64	44		187	63	49		190	64	49		192	65	51		191	60	48		192	63	49		193	67	48		189	61	45		193	66	45		194	67	45		191	81	48		251	225	93		253	233	95		253	222	86		249	180	53		247	172	50		240	181	70		73	74	127		243	227	119		241	226	127		40	62	147		18	54	156		15	53	157		16	56	155		13	54	157		14	55	155		15	53	156		14	54	156
13	55	155		15	55	155		17	55	154		14	54	156		13	55	156		16	56	155		17	56	155		18	56	154		20	55	154		14	53	157		16	54	156		14	55	156		18	55	155		41	60	147		225	105	49		235	109	39		235	103	35		238	97	34		237	101	35		242	117	41		252	164	49		253	175	47		254	176	51		254	173	48		254	173	47		254	174	48		253	171	50		247	167	60		141	46	37		139	39	36		142	35	33		140	35	35		149	40	38		183	60	45		190	65	46		191	66	47		194	66	46		193	65	43		191	65	44		193	63	45		190	63	47		190	62	47		195	67	46		193	65	46		194	66	44		195	81	48		251	225	90		253	228	92		254	235	98		254	228	86		254	225	84		253	189	57		237	170	80		42	61	146		43	63	147		41	62	145		20	56	155		17	55	155		15	56	155		16	56	155		14	55	156		14	56	154		15	55	155		16	54	155
14	56	155		16	56	154		14	55	155		14	55	155		15	56	155		16	56	154		14	55	156		16	56	155		16	55	155		12	54	157		14	55	156		13	55	157		15	54	156		58	59	136		229	109	51		237	108	35		238	104	33		244	107	32		244	115	37		249	163	50		252	176	52		253	175	48		254	174	50		254	176	49		254	173	49		254	174	52		253	168	49		249	171	58		142	47	37		140	38	33		138	32	31		138	33	36		135	34	36		145	37	38		178	54	43		192	64	47		193	65	47		186	63	46		192	63	44		192	61	44		188	60	47		191	61	46		194	64	48		193	62	49		195	69	45		194	79	49		251	229	94		253	235	92		254	236	92		253	234	90		252	229	86		250	227	96		54	72	133		24	54	152		18	57	155		16	56	155		12	54	158		13	54	157		12	55	157		12	55	156		12	55	157		14	55	155		14	55	155		15	54	156
14	56	155		14	55	155		14	55	155		13	54	156		14	56	155		14	56	155		14	55	156		16	56	154		15	54	155		12	53	157		14	54	155		14	54	156		40	60	146		225	101	69		239	107	39		236	107	37		234	105	32		238	106	35		248	166	50		251	176	54		253	176	51		254	176	49		253	174	47		254	173	47		254	176	49		253	171	49		254	171	46		253	172	49		246	165	54		147	52	39		141	40	35		137	34	32		133	32	31		137	38	32		145	40	33		178	57	42		190	63	47		186	62	47		194	66	44		194	63	45		192	66	46		195	64	45		196	66	46		196	67	47		193	76	49		252	224	89		253	234	90		251	229	91		253	232	90		254	233	88		253	232	89		250	227	108		55	77	134		19	53	156		16	54	156		13	55	157		12	55	157		14	55	156		12	54	157		13	55	156		12	55	157		12	55	156		14	56	155		15	54	156
12	55	156		12	54	157		13	55	156		13	55	156		15	56	155		15	56	155		17	56	154		18	56	154		16	55	155		13	54	157		12	55	156		15	56	155		45	63	143		234	109	55		240	109	34		237	109	35		236	105	33		245	122	39		251	170	51		252	172	52		254	171	50		254	169	46		254	171	47		254	176	47		254	178	49		254	170	46		254	172	46		254	172	50		252	171	52		246	171	56		150	52	39		145	40	36		135	36	34		136	38	32		138	36	30		145	38	33		182	58	45		183	63	48		187	62	46		194	64	45		190	66	44		190	64	43		191	67	45		200	89	52		252	224	92		254	226	86		254	233	88		254	234	89		254	235	91		254	234	90		254	230	91		254	229	90		251	231	117		39	65	150		15	56	155		12	54	157		14	55	156		14	54	156		13	54	157		15	56	156		13	55	157		13	55	156		14	55	156		14	55	156
12	55	157		15	55	155		16	55	155		15	55	155		14	55	156		15	55	155		14	54	156		14	55	156		17	55	154		14	54	156		15	55	155		14	55	156		37	61	147		219	105	68		224	106	51		225	105	42		239	116	38		250	167	53		251	171	52		253	175	50		254	172	49		253	174	54		254	173	49		254	175	50		254	175	52		254	173	45		254	170	45		252	173	51		249	172	52		249	172	51		250	164	47		229	111	45		147	48	39		136	38	34		134	36	33		135	32	32		144	40	41		151	44	39		181	58	42		192	60	42		191	60	42		192	63	43		195	80	51		249	222	102		252	229	92		254	228	88		253	232	88		253	236	90		254	234	90		254	232	90		254	236	90		254	232	87		250	229	104		45	68	148		15	56	155		10	54	158		15	55	155		13	54	156		12	55	157		14	55	156		12	55	157		15	56	156		17	56	154		13	52	156
14	54	155		15	55	156		13	54	156		15	55	155		13	54	157		14	54	156		15	54	156		12	53	156		14	54	157		16	54	155		17	54	155		16	53	156		20	53	155		38	57	144		33	55	145		60	61	135		245	164	65		251	172	54		252	171	51		253	170	52		253	173	48		252	175	48		254	173	46		254	171	48		253	172	49		253	174	49		252	169	48		251	173	49		251	170	49		251	168	48		252	171	50		253	171	50		245	163	59		147	47	37		142	41	34		137	35	31		140	36	32		139	35	33		142	34	35		144	39	37		185	64	46		193	74	49		251	220	93		254	229	89		254	225	82		253	182	61		252	221	84		253	224	89		254	231	89		254	232	87		254	233	86		254	232	89		249	231	110		41	63	145		17	56	154		13	54	157		14	55	156		15	55	155		14	55	156		15	55	155		15	56	155		13	54	157		14	54	157		13	53	154
16	55	155		18	55	155		16	55	154		16	55	154		14	55	155		15	55	155		15	55	155		13	54	156		14	55	155		13	54	157		15	54	156		16	54	156		17	54	155		17	53	156		23	55	153		58	69	140		248	173	72		253	173	51		252	172	51		252	169	48		253	172	49		254	170	43		254	174	49		254	170	52		254	170	50		254	177	50		254	176	48		252	168	46		252	164	51		246	127	38		249	168	51		252	172	48		253	174	49		249	171	51		249	164	54		150	47	36		143	45	37		137	41	32		142	40	30		148	45	36		244	158	59		250	176	60		254	229	91		254	232	91		254	229	85		254	220	79		253	195	69		254	227	83		254	231	91		254	232	91		254	233	93		254	230	89		252	230	102		46	67	145		15	55	155		13	54	157		13	55	157		14	55	156		13	54	156		15	55	155		15	55	155		13	54	157		15	54	156		15	56	154
13	54	156		15	54	156		16	55	155		15	55	155		16	55	154		16	55	154		14	54	156		14	55	156		15	55	155		12	54	157		14	54	156		14	53	157		15	54	156		19	54	155		37	59	148		243	170	84		254	170	50		254	172	47		254	170	48		253	171	47		254	174	44		253	172	50		254	175	49		254	174	50		254	176	48		253	174	50		250	167	46		242	114	32		242	113	33		251	161	45		253	171	49		253	169	47		254	172	46		254	174	47		254	173	48		250	168	54		246	171	57		246	158	52		233	109	37		247	166	57		253	176	54		253	174	55		254	224	82		254	237	94		254	236	89		254	228	82		253	227	86		251	233	93		254	234	92		254	233	92		254	232	90		254	232	91		253	231	103		33	62	147		14	55	156		11	54	158		13	55	156		13	54	156		13	54	156		14	54	156		14	55	156		13	54	156		15	55	155		13	54	157
15	56	154		15	55	155		15	55	155		14	55	155		15	55	155		16	55	154		14	55	155		15	55	155		19	56	154		16	55	155		15	53	157		15	54	156		17	54	156		21	54	154		43	62	146		245	170	71		254	169	48		254	173	47		253	173	49		253	172	49		253	174	49		252	171	51		253	173	49		253	173	49		252	169	49		252	165	47		241	116	31		236	106	30		248	118	35		253	166	46		253	171	49		253	172	50		253	167	50		254	165	48		254	169	48		252	173	51		252	172	52		253	161	49		250	122	37		253	171	52		254	173	48		254	172	49		254	187	56		254	226	84		254	231	85		254	229	86		253	229	94		250	228	103		253	232	96		254	232	92		254	233	91		254	233	89		252	229	110		44	66	144		18	57	154		13	55	156		14	56	156		15	55	155		15	55	155		14	54	156		14	54	156		14	54	155		15	55	156		15	54	156
13	54	156		15	55	155		13	54	157		12	54	157		13	55	156		13	54	156		13	54	156		16	55	155		16	55	155		15	53	155		15	55	156		18	57	154		18	55	154		20	56	154		39	62	147		245	173	71		253	172	50		252	168	47		252	177	48		252	175	50		252	175	52		250	166	52		249	156	51		245	123	39		237	108	33		237	106	32		234	107	35		237	111	35		252	160	45		253	168	47		253	171	49		253	175	48		253	171	50		253	169	48		253	171	48		252	174	49		253	173	50		253	171	49		252	161	48		253	164	45		254	170	48		254	176	49		254	174	52		254	229	86		254	235	93		254	230	91		250	229	104		71	85	128		243	225	121		252	227	98		254	232	92		254	235	92		247	223	119		46	66	143		16	56	155		12	54	158		13	55	157		15	55	156		15	55	156		16	55	155		16	55	155		15	55	155		15	56	155		14	55	156
14	55	155		13	54	156		14	54	156		14	55	155		15	55	155		15	55	155		13	53	157		16	55	155		16	55	155		13	54	157		14	55	156		16	55	155		17	55	154		20	56	153		44	63	144		247	170	69		252	176	53		251	171	52		252	175	52		248	170	64		245	162	67		228	116	51		240	111	42		243	108	30		241	106	30		243	109	30		236	103	31		242	109	35		254	168	48		254	171	47		253	173	49		254	175	47		254	174	46		254	170	45		253	171	50		252	169	49		254	173	48		254	173	50		253	169	49		254	173	46		254	171	47		254	172	47		254	178	52		254	227	88		254	235	90		254	234	90		248	225	105		58	76	134		41	63	148		61	79	142		245	222	110		249	230	112		61	76	142		16	56	157		13	55	157		12	55	157		13	55	157		14	54	156		13	55	157		14	55	156		14	55	156		13	55	156		14	56	155		15	56	155
15	55	154		15	55	155		16	56	154		17	56	154		17	56	153		16	56	154		15	55	155		15	55	155		14	54	156		14	55	156		14	55	156		13	55	156		14	55	156		18	57	154		34	61	147		241	167	84		249	176	71		247	173	67		245	168	79		58	68	134		41	61	141		55	63	135		230	106	53		235	103	34		235	110	34		242	109	31		238	103	29		237	109	34		253	166	45		253	173	46		253	171	49		253	173	48		254	170	48		254	169	45		254	172	45		253	169	48		253	169	50		253	167	48		251	169	50		252	173	49		253	171	48		254	172	45		254	176	52		254	230	85		254	238	91		254	233	86		253	229	87		243	224	121		42	68	149		18	57	154		58	75	137		237	220	129		43	66	146		18	57	155		15	55	155		14	55	156		12	55	157		17	56	154		16	55	154		14	55	156		14	54	156		15	55	155		14	55	155		15	55	155
16	57	154		15	57	154		15	56	154		14	56	155		16	56	154		16	56	154		15	55	155		15	55	155		15	55	155		15	55	155		14	55	156		13	55	155		14	55	156		17	57	154		18	56	154		36	61	145		43	63	143		40	63	146		38	62	145		18	56	155		20	55	155		38	60	147		232	106	56		239	109	33		239	106	35		241	102	34		239	108	33		249	163	52		253	172	49		253	171	47		251	169	49		252	170	46		253	172	49		254	175	48		254	170	50		253	172	50		252	168	46		246	121	35		251	162	44		252	174	47		253	172	49		254	173	51		254	180	53		254	224	85		254	236	91		253	227	88		252	230	91		242	227	118		40	64	147		15	55	156		19	57	154		38	65	148		24	59	153		14	55	156		15	55	155		13	55	156		12	54	157		16	55	154		16	55	154		13	55	156		14	55	155		15	55	154		15	55	155		15	55	155
14	55	155		15	56	154		16	56	154		15	55	155		16	56	154		16	55	154		15	55	155		15	55	155		15	54	155		14	55	156		14	55	155		15	56	155		13	55	156		14	55	156		16	56	155		17	56	153		16	55	154		17	56	154		15	55	156		14	54	156		16	55	157		36	58	148		220	103	75		231	107	56		232	106	54		230	105	53		226	110	49		253	172	51		254	169	48		253	171	47		253	173	47		252	171	45		253	170	47		254	173	44		254	174	47		253	169	50		251	163	46		245	108	32		245	115	36		252	168	51		254	174	48		254	170	47		254	176	47		254	182	58		254	230	91		253	229	90		253	233	100		62	74	141		22	57	152		13	55	156		14	54	155		17	56	154		19	56	154		16	56	155		15	55	155		14	55	156		13	54	157		15	54	155		17	55	154		14	55	155		14	55	155		14	55	156		13	54	156		14	54	156
14	55	155		15	56	154		15	56	155		15	56	154		16	56	154		16	56	154		15	55	155		16	55	155		15	55	155		16	55	155		16	55	155		16	56	154		14	55	156		13	55	156		16	55	155		13	53	157		15	53	156		17	54	155		15	53	155		15	53	155		15	54	156		19	55	154		35	56	148		39	57	143		41	58	142		45	59	142		72	68	121		248	170	63		253	169	49		254	170	44		253	171	47		251	169	48		253	169	51		254	172	46		254	171	48		251	166	52		239	115	38		239	102	31		237	110	39		250	165	52		254	177	51		254	171	48		254	172	46		254	178	55		254	226	87		252	225	90		253	231	102		45	63	143		16	56	155		14	56	155		12	54	156		16	56	154		16	56	154		14	55	156		15	55	156		13	54	156		12	54	157		15	54	155		16	55	154		14	55	156		14	55	155		15	56	154		15	55	155		17	56	154
13	55	156		15	56	154		14	55	155		15	56	154		15	56	154		16	56	154		16	55	155		17	56	154		15	55	155		15	55	156		15	56	155		15	56	155		14	55	155		14	55	155		16	55	155		15	53	156		15	55	156		15	54	155		12	53	156		12	54	156		15	55	155		15	54	155		17	54	153		14	55	154		16	55	154		38	58	143		239	168	79		252	178	53		254	172	46		254	171	44		253	172	50		253	173	49		253	171	50		253	172	49		249	166	60		229	114	49		228	111	49		236	105	37		238	106	34		238	115	38		254	171	47		254	175	48		253	171	49		254	178	53		254	228	83		253	232	91		244	223	117		45	63	143		13	55	156		10	54	158		11	54	157		13	55	156		13	54	156		13	54	157		13	55	156		14	55	156		12	53	158		15	54	155		16	55	155		13	54	156		14	55	156		14	55	155		14	55	155		14	55	155
13	55	156		15	56	155		14	55	155		14	55	155		14	55	155		16	56	154		16	55	155		16	55	155		15	55	156		13	54	157		14	55	156		15	56	155		16	55	155		16	56	154		17	55	155		15	54	155		16	55	155		15	54	156		13	53	157		14	56	156		16	56	155		19	56	154		17	54	155		15	56	155		17	56	154		41	58	142		246	178	65		252	175	49		253	174	49		253	169	45		253	169	49		253	170	50		246	171	65		240	165	80		61	62	138		38	55	144		56	60	137		230	109	48		238	116	43		219	104	56		246	168	68		253	174	52		251	169	49		253	179	49		252	227	90		250	229	103		53	65	142		17	56	154		14	55	155		12	54	157		14	56	155		16	56	154		14	55	155		14	56	155		13	55	156		13	54	157		14	54	157		15	54	156		15	55	155		14	55	156		14	55	156		15	55	155		13	54	156		14	54	156
15	55	155		14	55	155		14	55	155		15	55	155		15	55	155		15	55	155		15	54	155		15	55	155		15	55	155		13	54	156		14	55	156		14	56	155		15	55	155		15	54	156		16	55	154		15	54	157		15	55	156		16	54	156		13	54	157		14	55	156		16	55	155		15	54	156		11	52	158		13	54	157		16	54	155		41	60	141		245	174	67		250	171	52		251	175	52		252	168	48		248	170	63		238	169	82		55	68	132		41	62	146		20	55	154		21	56	152		40	58	145		218	106	69		219	105	67		60	61	134		59	62	135		236	172	79		249	170	55		251	176	53		251	222	87		240	225	117		43	63	144		16	55	154		14	55	156		13	54	156		15	55	155		18	55	154		14	54	156		13	55	156		14	55	155		14	55	155		16	55	155		14	54	156		14	55	156		11	54	158		13	54	157		16	55	155		15	54	156		13	54	157
15	56	154		15	56	154		15	55	155		15	55	155		15	56	154		17	56	153		18	56	153		14	55	155		11	55	156		12	56	156		14	56	154		14	56	154		15	55	155		15	55	155		15	54	156		17	55	155		14	55	156		13	54	157		12	54	157		11	55	157		11	53	157		11	53	157		12	53	157		16	55	155		19	55	154		39	57	143		233	176	88		245	170	68		247	171	69		240	169	86		60	63	134		38	61	143		16	56	156		15	56	157		14	54	157		13	53	157		16	55	157		38	59	145		39	59	144		14	52	154		20	54	153		58	67	132		239	171	79		249	174	57		239	218	116		59	78	136		22	58	153		14	56	156		13	54	157		14	54	156		14	54	156		17	55	155		14	53	156		13	54	157		14	55	155		14	55	155		14	55	155		15	55	155		14	55	155		11	54	157		13	55	156		15	56	155		16	55	154		14	54	156
14	56	155		15	56	155		16	56	154		15	56	154		15	56	154		15	56	155		14	56	155		12	55	157		12	55	156		14	55	156		14	55	155		15	56	154		14	55	155		13	55	155		15	54	155		15	55	155		13	54	156		12	55	156		14	56	155		14	56	155		14	56	156		14	55	156		16	55	154		16	56	155		15	56	156		19	57	155		38	60	143		42	59	144		44	60	143		42	60	145		19	56	153		19	56	152		17	56	153		14	55	155		13	55	155		14	54	154		15	54	155		17	55	154		16	55	156		14	56	159		17	54	156		21	55	153		58	67	134		229	170	95		58	70	142		18	56	154		17	57	155		13	55	156		13	55	155		13	54	156		13	54	155		15	55	155		18	56	154		14	55	155		14	56	155		15	56	154		13	54	156		13	54	156		14	54	156		13	55	156		13	55	156		15	55	155		17	55	154		15	55	155
14	56	155		15	56	155		15	56	155		13	56	155		14	56	156		15	56	155		15	56	156		13	55	156		13	55	155		14	55	155		14	55	155		14	55	155		14	55	154		13	55	155		13	54	156		14	55	155		13	55	156		15	56	154		16	57	153		16	58	153		12	56	156		13	55	155		13	54	156		12	55	156		13	54	157		13	55	158		15	55	155		17	54	154		17	53	154		18	53	153		14	54	155		17	56	155		13	54	157		13	55	156		13	55	156		13	55	157		14	55	156		16	55	155		15	54	155		13	56	157		15	56	157		17	56	155		21	57	154		32	61	148		18	55	153		14	55	156		12	55	157		12	54	157		13	55	155		12	54	156		12	54	156		13	55	156		14	55	156		12	54	157		13	56	155		14	55	155		15	55	155		15	55	155		14	55	155		12	55	156		12	55	156		13	55	156		13	54	156		12	53	157
14	56	155		15	57	154		13	56	155		13	56	156		15	56	155		14	55	156		15	56	155		15	56	155		13	55	155		15	55	154		14	55	155		14	55	155		15	56	154		14	55	154		14	54	155		16	54	154		15	54	155		13	52	155		13	54	154		14	56	153		14	54	154		12	53	156		11	53	157		12	54	155		11	55	156		13	55	156		14	56	154		15	56	154		13	55	156		12	53	155		12	54	156		13	57	158		13	56	157		13	55	157		14	56	157		15	55	155		13	54	156		15	56	155		15	55	155		14	55	156		14	56	156		15	55	156		18	54	154		18	55	152		17	56	155		14	54	155		14	55	155		12	54	156		12	55	156		12	54	156		14	54	155		14	54	155		15	54	156		13	54	156		14	55	155		14	55	155		13	54	156		15	55	155		15	55	155		13	55	156		14	55	155		12	54	156		13	54	156		15	55	155
15	56	155		15	56	155		14	56	155		14	56	156		14	56	156		13	55	156		15	55	155		13	55	156		14	55	155		17	56	154		14	55	156		12	54	156		15	55	155		13	54	156		14	54	155		17	58	155		14	56	157		13	55	157		14	56	157		17	56	153		16	55	155		16	55	154		15	54	155		14	54	155		14	56	155		13	54	156		14	55	155		13	54	156		15	56	156		15	55	156		12	54	156		13	54	156		13	55	155		14	56	156		15	54	154		15	55	155		14	55	156		16	57	156		15	58	157		12	56	157		13	56	156		14	55	156		15	53	156		16	55	155		14	53	154		14	52	155		15	54	155		15	54	155		14	55	155		14	55	155		16	55	154		14	55	155		15	55	155		15	56	155		13	56	155		13	55	156		16	55	155		15	54	155		15	55	155		14	55	156		13	55	156		13	55	156		14	54	156		15	55	155
16	56	154		15	56	155		14	56	155		14	56	155		14	56	156		15	55	155		16	56	155		14	54	156		15	54	155		16	55	156		13	54	157		13	54	157		15	55	155		14	54	156		14	56	156		13	54	155		13	55	155		15	55	155		14	54	155		14	54	154		14	54	157		14	52	155		13	54	157		14	55	157		15	53	154		14	53	156		17	56	156		13	53	157		14	53	156		16	54	155		16	55	154		13	53	155		16	55	156		15	55	155		12	55	156		13	56	156		15	56	156		14	55	158		14	55	156		12	55	157		12	54	156		12	53	154		15	55	158		15	56	157		14	55	156		14	53	156		16	54	156		16	57	158		13	54	157		14	54	156		15	54	155		14	54	156		13	55	156		14	56	155		12	55	156		12	54	157		14	54	156		14	55	156		14	55	155		13	55	156		13	55	156		12	56	156		12	55	157		13	54	157
17	57	154		15	56	155		15	57	155		15	56	155		15	56	155		15	55	155		13	54	157		13	54	157		14	54	155		15	54	156		15	54	156		13	54	156		14	54	156		16	55	155		17	57	154		15	56	155		14	55	155		14	56	155		12	55	155		12	55	155		13	55	155		15	57	155		13	53	155		15	53	153		15	55	155		13	54	159		16	55	155		14	54	155		14	55	156		14	54	155		14	56	155		14	55	154		13	55	158		14	56	155		13	56	156		13	54	155		14	54	154		14	53	156		13	53	155		14	54	155		13	55	155		12	55	155		15	56	156		16	56	155		17	56	156		14	54	157		17	55	155		14	55	156		14	55	157		15	55	155		16	55	154		14	55	156		14	54	156		15	55	156		14	55	156		14	54	156		15	54	156		15	54	156		14	55	156		15	56	155		16	57	154		16	56	155		15	54	156		14	53	156
