P3
# Created by GIMP version 2.10.34 PNM plug-in
64 64
255
15
55
156
15
55
156
15
55
156
15
55
156
15
55
156
15
55
156
15
55
156
15
55
156
15
55
156
15
55
156
15
55
156
15
55
156
15
55
156
15
55
156
15
55
156
15
55
156
15
55
156
15
55
156
15
55
156
15
55
156
15
55
156
15
55
156
15
55
156
15
55
156
15
55
156
15
55
156
15
55
156
15
55
156
15
55
156
15
55
156
15
55
156
15
55
156
15
55
156
15
55
156
15
55
156
15
55
156
15
55
156
15
55
156
15
55
156
15
55
156
15
55
156
15
55
156
15
55
156
15
55
156
15
55
156
15
55
156
15
55
156
15
55
156
15
55
156
15
55
156
15
55
156
15
55
156
15
55
156
15
55
156
15
55
156
15
55
156
15
55
156
15
55
156
15
55
156
15
55
156
15
55
156
15
55
156
15
55
156
15
55
156
15
55
156
15
55
156
15
55
156
15
55
156
15
55
156
15
55
156
15
55
156
15
55
156
15
55
156
15
55
156
15
55
156
15
55
156
15
55
156
15
55
156
15
55
156
15
55
156
15
55
156
15
55
156
15
55
156
15
55
156
15
55
156
15
55
156
15
55
156
15
55
156
15
55
156
15
55
156
15
55
156
15
55
156
15
55
156
15
55
156
15
55
156
15
55
156
15
55
156
15
55
156
15
55
156
15
55
156
15
55
156
15
55
156
15
55
156
15
55
156
15
55
156
15
55
156
15
55
156
15
55
156
15
55
156
15
55
156
15
55
156
15
55
156
15
55
156
15
55
156
15
55
156
15
55
156
15
55
156
15
55
156
15
55
156
15
55
156
15
55
156
15
55
156
15
55
156
15
55
156
15
55
156
15
55
156
15
55
156
15
55
156
15
55
156
15
55
156
15
55
156
15
55
156
15
55
156
15
55
156
15
55
156
15
55
156
15
55
156
15
55
156
15
55
156
15
55
156
15
55
156
15
55
156
15
55
156
15
55
156
15
55
156
15
55
156
15
55
156
15
55
156
15
55
156
15
55
156
15
55
156
15
55
156
15
55
156
15
55
156
15
55
156
15
55
156
15
55
156
15
55
156
15
55
156
15
55
156
15
55
156
15
55
156
15
55
156
15
55
156
15
55
156
15
55
156
15
55
156
15
55
156
15
55
156
15
55
156
15
55
156
15
55
156
15
55
156
15
55
156
15
55
156
15
55
156
15
55
156
15
55
156
15
55
156
15
55
156
15
55
156
15
55
156
15
55
156
15
55
156
15
55
156
15
55
156
15
55
156
15
55
156
15
55
156
15
55
156
15
55
156
15
55
156
15
55
156
15
55
156
15
55
156
15
55
156
15
55
156
15
55
156
15
55
156
15
55
156
15
55
156
15
55
156
15
55
156
15
55
156
15
55
156
15
55
156
15
55
156
15
55
156
15
55
156
15
55
156
15
55
156
15
55
156
15
55
156
15
55
156
15
55
156
15
55
156
15
55
156
15
55
156
15
55
156
15
55
156
15
55
156
15
55
156
15
55
156
15
55
156
15
55
156
15
55
156
15
55
156
15
55
156
15
55
156
15
55
156
15
55
156
15
55
156
15
55
156
15
55
156
15
55
156
15
55
156
15
55
156
15
55
156
15
55
156
15
55
156
15
55
156
15
55
156
15
55
156
15
55
156
15
55
156
15
55
156
15
55
156
15
55
156
15
55
156
15
55
156
15
55
156
15
55
156
15
55
156
15
55
156
15
55
156
15
55
156
15
55
156
15
55
156
15
55
156
15
55
156
15
55
156
15
55
156
15
55
156
15
55
156
15
55
156
15
55
156
15
55
156
15
55
156
15
55
156
15
55
156
15
55
156
15
55
156
15
55
156
15
55
156
15
55
156
15
55
156
15
55
156
15
55
156
15
55
156
15
55
156
15
55
156
15
55
156
15
55
156
15
55
156
15
55
156
15
55
156
15
55
156
15
55
156
15
55
156
15
55
156
15
55
156
15
55
156
15
55
156
15
55
156
15
55
156
15
55
156
15
55
156
15
55
156
15
55
156
15
55
156
15
55
156
15
55
156
15
55
156
15
55
156
15
55
156
15
55
156
15
55
156
15
55
156
15
55
156
15
55
156
15
55
156
15
55
156
15
55
156
15
55
156
15
55
156
15
55
156
15
55
156
15
55
156
15
55
156
15
55
156
15
55
156
15
55
156
15
55
156
15
55
156
15
55
156
15
55
156
15
55
156
15
55
156
15
55
156
15
55
156
15
55
156
15
55
156
15
55
156
15
55
156
15
55
156
15
55
156
15
55
156
15
55
156
15
55
156
15
55
156
15
55
156
15
55
156
15
55
156
15
55
156
15
55
156
15
55
156
15
55
156
15
55
156
15
55
156
15
55
156
15
55
156
15
55
156
15
55
156
15
55
156
15
55
156
16
55
155
42
66
146
44
66
145
44
66
145
43
65
146
16
55
155
15
55
156
15
55
156
15
55
156
15
55
156
15
55
156
15
55
156
15
55
156
15
55
156
15
55
156
15
55
156
15
55
156
15
55
156
15
55
156
15
55
156
15
55
156
15
55
156
15
55
156
15
55
156
15
55
156
15
55
156
15
55
156
15
55
156
15
55
156
15
55
156
15
55
156
15
55
156
15
55
156
15
55
156
15
55
156
15
55
156
15
55
156
15
55
156
15
55
156
15
55
156
15
55
156
15
55
156
15
55
156
15
55
156
15
55
156
15
55
156
15
55
156
15
55
156
15
55
156
15
55
156
15
55
156
21
52
161
43
65
147
44
65
146
43
66
147
44
66
147
44
65
148
42
66
143
14
56
157
14
56
156
15
55
156
15
55
156
15
55
156
15
55
156
42
66
146
241
225
122
249
227
107
249
227
107
244
223
121
59
74
137
15
55
161
14
56
156
15
55
156
15
55
156
15
55
156
15
55
156
15
55
156
15
55
156
15
55
156
15
55
156
15
55
156
15
55
156
15
55
156
15
55
156
15
55
156
15
55
156
15
55
156
15
55
156
15
55
156
15
55
156
15
55
156
15
55
156
15
55
156
15
55
156
15
55
156
15
55
156
15
55
156
15
55
156
15
55
156
15
55
156
15
55
156
15
55
156
15
55
156
15
55
156
15
55
156
15
55
156
15
55
156
15
55
156
15
55
156
15
55
156
15
55
156
15
55
156
15
55
156
15
55
156
15
55
156
43
64
147
237
226
122
248
225
105
248
225
106
248
225
106
248
225
108
237
227
117
57
77
132
43
66
145
43
66
146
16
55
155
15
55
156
15
55
157
43
66
147
247
228
107
255
230
90
255
229
90
255
229
92
238
227
121
56
76
138
16
56
155
15
55
156
15
55
156
15
55
156
15
55
156
15
55
156
15
55
156
15
55
156
15
55
156
15
55
156
15
55
156
15
55
156
15
55
156
15
55
156
15
55
156
15
55
156
15
55
156
15
55
156
15
55
156
15
55
156
15
55
156
15
55
156
15
55
156
15
55
156
15
55
156
15
55
156
15
55
156
15
55
156
15
55
156
15
55
156
15
55
156
15
55
156
15
55
156
15
55
156
15
55
156
15
55
156
15
55
156
15
55
156
15
55
156
15
55
156
15
55
156
15
55
156
15
55
156
15
55
156
43
65
147
236
226
120
253
229
89
254
228
89
254
228
89
254
228
91
254
229
93
249
227
106
249
227
106
243
225
119
59
75
135
43
65
147
17
54
157
44
65
147
247
228
107
253
230
90
255
230
90
255
229
90
254
230
92
243
225
119
59
74
133
15
56
157
15
55
156
15
55
156
15
55
156
15
55
156
15
55
156
15
55
156
15
55
156
15
55
156
15
55
156
15
55
156
15
55
156
15
55
156
15
55
156
15
55
156
15
55
156
15
55
156
15
55
156
15
55
156
15
55
156
15
55
156
15
55
156
15
55
156
15
55
156
15
55
156
15
55
156
15
55
156
15
55
156
15
55
156
15
55
156
15
55
156
15
55
156
15
55
156
15
55
156
15
55
156
15
55
156
15
55
156
15
55
156
15
55
156
15
55
156
15
55
156
15
55
156
15
55
156
15
55
161
56
76
137
242
224
117
254
228
90
254
228
89
254
228
90
255
229
91
255
230
91
255
230
90
255
230
91
249
227
104
243
225
119
59
74
139
60
74
139
247
228
106
253
230
90
255
230
90
255
229
90
255
230
90
255
230
91
239
227
116
56
76
133
16
56
155
16
55
155
41
60
146
17
55
155
15
55
156
15
55
156
15
55
156
15
55
156
15
55
156
15
55
156
15
55
156
15
55
156
15
55
156
15
55
156
15
55
156
15
55
156
15
55
156
15
55
156
15
55
156
15
55
156
15
55
156
15
55
156
15
55
156
15
55
156
15
55
156
15
55
156
15
55
156
15
55
156
15
55
156
15
55
156
15
55
156
15
55
156
15
55
156
15
55
156
15
55
156
15
55
156
15
55
156
16
55
156
19
54
156
43
60
141
46
59
143
47
59
143
47
59
144
47
59
142
71
78
124
250
224
105
254
229
87
254
229
88
255
230
89
255
230
90
255
230
91
255
229
92
255
230
90
254
230
91
247
228
106
247
226
105
253
230
91
255
230
90
255
229
90
255
229
90
255
230
90
255
230
90
254
230
91
243
225
119
59
70
137
59
65
136
231
169
96
60
64
134
17
55
155
15
55
156
15
55
156
15
55
156
15
55
156
15
55
156
15
55
156
15
55
156
15
55
156
15
55
156
15
55
156
15
55
156
15
55
156
15
55
156
15
55
156
15
55
156
15
55
156
15
55
156
15
55
156
15
55
156
15
55
156
15
55
156
15
55
156
15
55
156
15
55
156
15
55
156
15
55
156
15
55
156
15
55
156
15
55
156
15
55
156
15
55
156
15
55
156
16
55
155
58
66
132
236
172
83
247
171
69
247
171
69
247
171
69
247
171
69
242
174
72
254
227
86
254
229
88
254
229
87
255
230
88
255
230
90
255
229
92
255
229
92
255
229
92
255
230
90
253
229
89
247
179
55
253
228
89
255
230
90
255
229
90
255
229
90
255
229
90
255
230
90
255
230
90
255
228
90
244
172
70
246
170
68
251
174
49
239
170
85
43
60
145
15
55
156
15
55
156
15
55
156
15
55
156
15
55
156
15
55
156
15
55
156
15
55
156
15
55
156
15
55
156
15
55
156
15
55
156
15
55
156
15
55
156
15
55
156
15
55
156
15
55
156
15
55
156
15
55
156
15
55
156
15
55
156
15
55
156
15
55
156
15
55
156
15
55
156
15
55
156
15
55
156
15
55
156
15
55
156
15
55
156
15
55
156
13
56
156
40
61
146
232
168
96
253
173
49
254
170
52
255
170
52
255
170
48
255
170
49
252
173
51
254
224
88
253
229
89
252
229
89
255
230
90
255
230
90
255
230
90
255
230
90
255
230
90
255
230
90
254
230
90
254
228
89
255
227
89
255
229
90
255
230
90
255
230
90
255
230
90
255
230
90
255
230
90
255
228
89
250
175
51
253
171
49
255
172
50
247
170
70
47
58
148
43
65
146
43
66
146
43
66
146
45
63
146
17
54
161
15
55
156
15
55
156
15
55
156
15
55
156
15
55
156
15
55
156
15
55
156
15
55
156
15
55
156
15
55
156
15
55
156
15
55
156
15
55
156
15
55
156
15
55
156
15
55
156
15
55
156
15
55
156
15
55
156
15
55
156
15
55
156
15
55
156
15
55
156
15
55
156
15
55
156
15
55
156
14
56
156
15
56
155
61
63
135
241
169
85
254
170
53
255
170
51
255
170
49
254
170
49
253
171
51
251
175
53
254
226
88
254
228
89
255
230
90
255
230
90
255
230
90
255
230
90
255
230
90
255
230
90
255
230
90
255
228
89
251
175
54
255
228
89
255
230
90
255
230
90
255
230
90
255
230
90
255
230
90
255
230
90
254
226
87
253
172
50
255
171
50
246
173
69
72
77
123
237
226
120
246
227
105
247
227
105
240
224
121
58
74
138
16
56
155
15
55
156
15
55
156
15
55
156
15
55
156
15
55
156
15
55
156
15
55
156
15
55
156
15
55
156
15
55
156
15
55
156
15
55
156
15
55
156
15
55
156
15
55
156
15
55
156
15
55
156
15
55
156
15
55
156
15
55
156
15
55
156
15
55
156
15
55
156
15
55
156
15
55
156
19
53
161
42
65
147
45
65
145
73
73
124
246
171
65
253
172
51
253
172
51
252
172
52
252
173
52
250
175
53
254
226
88
254
228
89
255
230
90
255
230
90
255
230
90
255
230
90
255
230
90
255
230
90
255
230
90
255
228
89
249
177
54
253
229
89
255
230
90
255
230
90
255
230
90
255
230
90
255
230
90
255
230
90
254
228
87
249
176
51
252
175
52
254
225
88
248
227
104
252
230
91
253
230
90
253
230
90
253
230
91
241
225
121
42
66
146
15
55
156
15
55
156
15
55
156
15
55
156
15
55
156
15
55
156
15
55
156
15
55
156
15
55
156
15
55
156
15
55
156
15
55
156
15
55
156
15
55
156
15
55
156
15
55
156
15
55
156
15
55
156
15
55
156
15
55
156
15
55
156
15
55
156
15
55
156
17
55
155
42
65
146
58
74
137
235
226
121
248
226
105
249
226
103
254
228
88
254
228
87
254
228
89
254
227
91
255
227
89
255
227
89
255
229
90
255
229
90
255
228
89
255
228
89
255
230
90
255
230
90
255
230
90
255
230
90
255
230
90
254
230
90
253
229
89
254
230
90
255
230
90
255
230
90
255
230
90
255
230
90
255
230
90
255
230
90
255
230
88
255
228
87
255
227
87
255
229
90
254
230
90
253
230
90
253
230
90
253
230
90
253
230
90
247
228
107
43
66
145
15
55
156
15
55
156
15
55
156
15
55
156
15
55
156
15
55
156
15
55
156
15
55
156
15
55
156
15
55
156
15
55
156
15
55
156
15
55
156
15
55
156
15
55
156
15
55
156
15
55
156
15
55
156
15
55
156
15
55
156
15
55
156
15
55
156
17
55
155
61
72
139
240
223
122
246
227
105
251
229
90
252
229
89
253
229
89
255
230
90
255
230
90
255
230
90
255
230
90
255
230
88
255
230
88
255
230
90
255
228
89
249
179
55
249
179
55
254
226
89
255
229
90
255
230
90
255
230
90
255
229
91
253
225
94
253
224
93
254
224
93
254
223
93
254
223
92
255
229
90
255
230
90
253
230
90
253
229
89
255
229
88
255
230
90
254
230
90
254
230
90
255
230
90
255
230
90
255
230
90
255
230
90
253
230
90
247
228
107
43
66
145
15
55
156
15
55
156
15
55
156
15
55
156
15
55
156
15
55
156
15
55
156
15
55
156
15
55
156
15
55
156
15
55
156
15
55
156
15
55
156
15
55
156
15
55
156
15
55
156
15
55
156
15
55
156
15
55
156
15
55
156
16
55
155
42
66
146
58
74
136
241
223
121
251
230
88
252
229
89
252
229
89
252
229
89
253
229
89
255
230
90
255
230
90
255
230
90
255
230
90
255
230
88
255
230
88
255
230
90
255
229
90
255
228
89
255
225
89
248
181
56
255
228
89
255
230
90
254
226
94
252
221
97
195
83
48
192
76
43
192
76
43
193
75
43
193
83
43
253
221
97
253
226
94
253
227
89
247
179
55
255
227
88
255
229
90
255
230
90
255
230
91
255
230
90
255
230
90
255
230
90
255
230
90
253
230
90
247
228
107
43
66
145
15
55
156
15
55
156
15
55
156
15
55
156
15
55
156
15
55
156
15
55
156
15
55
156
15
55
156
15
55
156
15
55
156
15
55
156
15
55
156
15
55
156
15
55
156
15
55
156
15
55
156
15
55
156
15
55
156
21
52
161
58
73
138
240
224
119
246
227
105
252
229
91
252
230
88
254
226
86
254
226
86
254
227
86
254
228
89
255
230
90
255
230
90
255
230
90
255
230
90
255
230
90
255
230
90
255
230
90
255
230
90
255
230
90
255
230
90
255
228
89
254
230
90
251
223
95
193
84
46
195
76
42
197
66
44
195
64
45
195
64
47
195
64
47
195
64
47
194
74
46
194
79
44
248
169
56
254
227
87
255
229
91
255
229
91
255
230
89
255
230
89
255
230
90
255
230
90
255
230
90
255
230
90
253
230
90
247
228
107
43
66
145
15
55
156
15
55
156
15
55
156
15
55
156
15
55
156
15
55
156
15
55
156
15
55
156
15
55
156
15
55
156
15
55
156
15
55
156
15
55
156
15
55
156
15
55
156
15
55
156
15
55
156
15
55
156
17
55
155
59
69
137
238
224
119
252
227
90
253
227
88
253
227
88
253
226
86
252
172
49
253
170
49
252
172
49
254
225
86
255
228
87
255
228
89
255
228
89
255
230
90
255
230
90
255
230
90
255
230
90
255
230
90
255
230
90
255
230
90
254
226
94
253
221
97
193
84
46
195
67
45
196
66
44
197
66
44
195
64
45
195
64
47
195
64
47
195
64
47
195
64
47
195
64
47
193
79
42
252
222
94
255
229
91
255
229
91
255
229
89
255
229
88
255
230
90
255
230
90
255
230
90
255
230
90
254
230
90
241
225
121
42
66
146
15
55
156
15
55
156
15
55
156
15
55
156
15
55
156
15
55
156
15
55
156
15
55
156
15
55
156
15
55
156
15
55
156
15
55
156
15
55
156
15
55
156
15
55
156
15
55
156
15
55
156
16
54
158
43
59
147
240
169
85
252
174
53
253
173
50
253
173
50
253
173
50
251
173
52
253
171
51
254
171
51
255
170
48
253
172
50
253
173
50
253
173
50
251
175
51
255
225
89
254
228
89
255
230
90
254
230
90
254
230
89
255
229
88
252
221
93
194
84
46
195
75
47
195
64
45
195
65
45
195
65
44
195
64
45
195
64
45
195
64
45
195
64
45
195
64
45
195
64
45
195
64
45
195
64
45
192
83
44
251
223
94
254
230
89
255
229
88
255
229
88
254
230
90
253
230
90
255
230
90
255
230
90
249
226
105
61
74
138
18
57
156
15
55
156
15
55
156
15
55
156
15
55
156
15
55
156
15
55
156
15
55
156
15
55
156
15
55
156
15
55
156
15
55
156
15
55
156
15
55
156
15
55
156
15
55
156
15
55
156
15
55
156
17
54
157
60
64
136
247
170
68
255
171
50
255
170
49
255
170
49
255
170
49
253
171
50
253
171
50
254
170
52
255
170
48
255
170
46
255
170
46
255
170
49
254
170
49
253
172
51
249
176
52
254
226
89
253
228
89
253
230
90
252
221
93
196
83
45
197
65
48
197
65
48
195
64
45
195
64
45
195
64
45
195
64
45
195
64
45
195
64
45
195
64
45
195
64
45
195
64
45
195
64
45
195
64
45
196
64
45
192
84
45
252
227
92
255
230
88
255
230
88
253
230
90
253
230
90
255
230
90
255
230
91
244
223
120
45
65
148
16
57
157
15
55
156
15
55
156
15
55
156
15
55
156
15
55
156
15
55
156
15
55
156
15
55
156
15
55
156
15
55
156
15
55
156
15
55
156
15
55
156
15
55
156
15
55
156
15
55
156
15
55
156
39
62
144
226
172
98
246
171
70
247
170
69
246
169
68
246
169
68
245
170
68
245
170
66
254
166
53
254
169
51
255
169
47
255
169
49
255
170
49
255
170
50
255
170
48
255
170
47
255
170
48
253
173
50
251
175
51
253
221
93
194
83
46
197
65
48
197
65
48
197
65
48
195
64
45
195
64
45
195
64
45
195
64
45
195
64
45
195
64
45
194
65
44
192
65
45
192
65
45
194
64
45
196
64
44
196
63
46
194
74
47
251
221
97
254
230
88
254
230
88
255
230
90
255
230
90
255
230
90
249
227
106
60
75
137
18
57
156
16
57
157
15
55
156
15
55
156
15
55
156
15
55
156
15
55
156
15
55
156
15
55
156
15
55
156
15
55
156
15
55
156
15
55
156
15
55
156
15
55
156
15
55
156
15
55
156
15
55
156
15
55
156
17
54
158
41
62
144
45
60
143
45
60
143
45
59
142
44
59
142
44
60
141
69
61
121
226
112
46
254
164
54
255
168
48
255
167
51
255
168
51
255
170
51
255
170
48
255
170
46
255
170
48
255
170
49
254
171
49
251
167
62
197
70
46
197
65
48
197
65
48
197
65
48
195
64
45
195
64
45
195
64
45
195
64
45
195
64
45
195
64
45
191
65
46
146
37
28
141
37
32
143
38
32
192
64
46
195
64
45
195
65
45
193
82
47
251
222
95
254
230
89
255
230
90
255
230
90
254
230
91
243
225
120
43
67
147
17
56
157
16
57
157
15
55
156
15
55
156
15
55
156
15
55
156
15
55
156
15
55
156
15
55
156
15
55
156
15
55
156
15
55
156
15
55
156
15
55
156
15
55
156
15
55
156
15
55
156
15
55
156
15
55
156
15
55
156
15
55
156
15
55
156
15
55
156
15
55
156
16
55
155
54
57
139
220
108
68
239
105
36
239
108
34
239
108
34
239
108
34
236
112
31
252
167
57
255
170
47
255
170
47
254
170
51
255
166
54
253
164
59
149
51
26
195
65
48
197
65
48
197
65
48
197
65
48
195
65
44
195
65
43
195
64
45
195
64
45
194
64
46
191
64
48
142
36
32
140
35
33
140
35
34
141
34
34
145
36
34
189
65
50
195
65
44
195
65
44
191
84
44
253
226
93
255
230
90
255
230
90
249
226
103
72
79
124
43
62
145
20
54
162
16
57
157
15
55
156
15
55
156
15
55
156
15
55
156
15
55
156
15
55
156
15
55
156
15
55
156
15
55
156
15
55
156
15
55
156
15
55
156
15
55
156
15
55
156
15
55
156
15
55
156
15
55
156
15
55
156
15
55
156
15
55
157
17
55
155
41
55
146
57
56
136
221
107
68
239
105
37
241
105
34
240
105
35
239
108
34
239
108
33
241
107
34
235
114
33
254
168
48
255
170
49
255
166
54
234
116
33
232
113
37
149
39
26
195
65
48
197
65
48
197
65
47
197
65
47
195
65
43
195
65
43
195
64
45
195
64
45
193
64
46
146
35
30
137
35
33
140
35
34
140
35
34
140
35
34
141
35
35
147
35
34
192
65
44
195
65
44
193
75
45
253
226
93
255
230
90
255
226
89
250
175
49
242
172
69
234
170
86
58
66
137
17
57
156
15
55
156
15
55
156
15
55
156
15
55
156
15
55
156
15
55
156
15
55
156
15
55
156
15
55
156
15
55
156
15
55
156
15
55
156
15
55
156
15
55
156
15
55
156
15
55
156
15
55
156
15
55
156
15
55
157
15
55
157
57
56
137
220
108
68
229
107
53
239
106
34
237
109
31
241
107
30
240
110
30
254
165
50
254
167
48
254
167
47
254
167
48
255
170
49
255
170
49
255
170
50
254
168
51
251
163
62
146
45
29
192
65
50
197
65
47
197
65
45
197
65
45
195
64
45
195
64
45
195
64
45
195
64
45
189
65
50
142
34
33
137
35
34
138
36
34
138
36
34
139
36
34
139
36
34
141
37
33
192
63
49
196
63
46
194
74
46
251
222
96
255
227
89
251
175
54
255
170
51
254
170
49
252
171
51
238
169
80
58
67
132
19
54
157
15
55
156
15
55
156
15
55
156
15
55
156
15
55
156
15
55
156
15
55
156
15
55
156
15
55
156
15
55
156
15
55
156
15
55
156
15
55
156
15
55
156
15
55
156
15
55
156
15
55
156
15
55
156
41
56
146
223
107
67
237
106
37
237
108
36
238
111
31
254
161
53
254
166
50
254
166
49
254
169
47
254
169
47
254
169
45
254
169
47
255
170
49
255
170
51
255
170
49
253
167
55
146
51
26
140
35
38
147
35
34
194
65
48
197
66
43
197
66
44
195
64
45
195
64
45
195
64
45
193
64
46
145
35
32
140
33
33
138
35
33
138
36
34
138
36
34
138
36
34
138
36
34
138
36
35
147
35
33
193
64
47
195
65
45
192
83
45
254
223
93
254
224
88
251
175
53
253
173
50
251
173
50
250
174
51
234
171
82
42
61
142
15
55
156
15
55
156
15
55
156
15
55
156
15
55
156
15
55
156
15
55
156
15
55
156
15
55
156
15
55
156
15
55
156
15
55
156
15
55
156
15
55
156
15
55
156
15
55
156
15
55
156
16
55
155
55
59
134
230
107
52
240
110
28
254
165
53
255
168
48
255
170
47
255
170
49
255
170
49
255
170
49
255
170
49
255
170
49
255
170
49
255
170
49
255
170
49
255
170
49
253
167
56
143
43
31
139
35
35
140
39
33
191
65
47
195
65
43
195
65
43
195
64
45
195
64
45
195
64
45
193
64
46
142
36
33
140
35
33
139
36
33
137
35
33
140
35
34
140
35
34
140
35
34
140
35
34
142
36
32
194
64
46
195
65
42
195
74
45
254
225
94
254
230
90
255
228
89
255
228
89
255
228
89
255
226
87
239
176
69
60
70
134
16
55
155
15
55
156
15
55
156
15
55
156
15
55
156
15
55
156
15
55
156
15
55
156
15
55
156
15
55
156
15
55
156
15
55
156
15
55
156
15
55
156
15
55
156
15
55
156
15
55
156
38
56
146
210
110
75
237
110
34
254
165
53
253
171
51
254
170
47
255
170
46
255
170
49
255
170
49
255
170
49
255
170
49
255
170
49
255
170
49
255
170
49
255
170
49
255
170
49
253
167
56
143
43
31
140
35
34
141
38
32
194
64
46
195
64
45
195
64
45
195
64
45
195
64
45
195
64
45
193
64
46
142
36
34
140
35
33
139
36
33
137
35
33
140
35
34
140
35
34
140
35
34
140
35
34
142
36
31
195
63
46
194
65
44
195
74
46
254
224
94
254
230
90
255
230
90
255
230
90
255
230
90
255
230
90
255
228
85
244
223
120
43
65
146
15
55
156
15
55
156
15
55
156
15
55
156
15
55
156
15
55
156
15
55
156
15
55
156
15
55
156
15
55
156
15
55
156
15
55
156
15
55
156
15
55
156
15
55
156
15
55
156
18
55
154
72
65
121
248
167
72
255
172
49
255
172
48
255
172
48
255
172
48
255
170
49
255
170
49
255
170
49
255
170
49
255
170
49
255
170
49
255
170
49
255
170
49
255
170
49
253
167
56
143
43
31
140
35
34
141
38
32
194
64
46
195
64
45
195
64
45
195
64
45
195
64
45
195
64
45
193
64
46
142
36
34
140
35
34
139
35
34
137
35
33
140
35
34
140
35
34
140
35
34
140
35
34
142
36
31
195
63
46
192
66
44
193
75
47
254
224
94
255
230
90
255
230
90
255
230
90
255
230
90
255
230
90
255
230
90
249
227
106
60
74
136
15
55
161
14
56
156
15
55
156
15
55
156
15
55
156
15
55
156
15
55
156
15
55
156
15
55
156
15
55
156
15
55
156
15
55
156
15
55
156
15
55
156
15
55
156
17
55
155
58
65
135
239
170
82
255
172
52
255
172
49
255
172
48
255
172
48
255
172
48
255
170
49
255
170
49
255
170
49
255
170
49
255
170
49
255
170
49
255
170
49
255
170
49
255
170
49
253
167
56
143
43
31
140
35
34
142
38
32
193
63
47
195
64
45
195
64
45
195
64
45
195
64
45
195
64
45
193
64
47
142
36
36
140
35
35
139
35
34
137
35
33
140
35
34
140
35
34
140
35
34
140
35
34
142
36
32
194
63
47
192
66
45
193
75
47
254
224
94
255
230
90
255
230
90
255
230
90
255
230
90
255
230
90
255
230
90
254
230
92
238
227
122
40
67
147
14
55
156
15
55
156
15
55
156
15
55
156
15
55
156
15
55
156
15
55
156
15
55
156
15
55
156
15
55
156
15
55
156
15
55
156
15
55
156
17
55
155
60
64
133
240
170
84
255
170
52
255
170
53
255
170
49
255
170
49
255
170
49
255
170
49
255
170
49
255
170
49
255
170
49
255
170
49
255
170
49
255
170
49
255
170
49
255
170
49
255
170
49
253
167
56
143
43
31
140
35
34
141
36
35
146
37
34
193
64
46
195
64
45
195
64
45
195
64
45
195
64
45
193
64
46
143
37
32
140
35
33
139
36
34
138
36
34
140
35
34
140
35
34
140
35
34
140
35
34
148
35
31
193
64
48
193
65
45
192
75
46
254
225
94
254
230
90
255
230
90
255
230
90
255
230
90
255
230
90
255
230
90
255
230
90
249
227
106
43
67
146
15
55
156
15
55
156
15
55
156
15
55
156
15
55
156
15
55
156
15
55
156
15
55
156
15
55
156
15
55
156
15
55
156
15
55
156
15
55
156
42
60
145
239
170
85
253
173
48
255
170
49
255
170
52
255
170
49
255
170
49
255
170
49
255
170
49
255
170
49
255
170
49
255
170
49
255
170
49
255
170
49
255
170
49
255
170
49
255
170
49
255
170
49
253
167
56
143
43
31
140
35
34
141
36
35
143
37
34
193
65
44
195
65
44
195
64
45
195
64
45
195
64
45
195
64
45
187
66
50
143
36
32
139
36
34
140
35
34
140
35
34
140
35
34
140
35
34
142
36
34
192
65
50
196
65
49
194
65
46
192
75
44
254
225
94
254
230
90
255
230
90
255
230
90
255
230
90
255
230
90
255
230
90
255
230
90
249
226
105
43
67
145
15
55
156
15
55
156
15
55
156
15
55
156
15
55
156
15
55
156
15
55
156
15
55
156
15
55
156
15
55
156
15
55
156
16
55
156
18
54
156
59
66
131
247
171
70
255
172
51
255
171
48
255
170
50
255
170
49
255
170
49
255
170
49
255
170
49
255
170
49
255
170
49
255
170
49
255
170
49
255
170
49
255
170
49
255
170
49
254
170
49
253
169
51
251
166
58
142
44
31
140
35
34
141
36
35
143
37
34
189
65
49
193
65
46
195
64
45
195
64
45
195
64
45
195
64
45
190
66
47
147
36
29
141
35
33
140
35
34
140
35
34
140
35
34
140
36
31
147
36
31
194
66
47
195
66
46
194
65
45
192
75
44
254
225
94
254
230
90
255
230
90
255
230
90
255
230
90
255
230
90
255
230
90
255
230
90
249
226
105
43
67
145
15
55
156
15
55
156
15
55
156
15
55
156
15
55
156
15
55
156
15
55
156
15
55
156
15
55
156
15
55
156
15
55
156
15
55
156
43
61
141
236
172
83
254
172
53
255
171
51
255
170
47
255
170
49
255
170
49
255
170
49
255
170
49
255
170
49
255
170
49
255
170
49
255
170
49
255
170
49
255
170
49
255
170
49
255
170
49
255
168
50
236
115
33
234
112
38
147
46
29
140
35
35
141
36
35
141
36
35
147
37
32
192
65
47
195
64
45
195
64
45
195
64
45
194
65
45
194
65
46
190
65
47
145
36
33
141
34
34
140
35
34
141
35
34
147
36
31
190
65
49
195
66
46
195
66
46
194
65
46
193
79
42
254
225
93
254
230
90
255
230
90
255
230
90
255
230
90
255
230
90
255
230
90
255
230
90
249
226
106
43
66
145
15
55
156
15
55
156
15
55
156
15
55
156
15
55
156
15
55
156
15
55
156
15
55
156
15
55
156
15
55
156
15
55
156
15
55
156
46
59
142
247
171
68
253
173
48
247
170
70
247
170
72
247
170
72
247
171
68
254
169
52
255
168
54
255
169
54
255
170
51
255
170
49
255
170
49
255
170
49
251
172
49
254
167
53
255
170
49
255
170
49
255
168
50
255
168
51
252
165
60
144
44
33
143
35
37
142
36
37
144
37
32
190
65
47
195
64
44
195
64
45
195
64
45
195
64
45
195
64
45
196
64
44
193
64
46
149
35
30
144
35
32
146
36
32
193
65
48
197
65
46
197
65
46
197
65
46
196
69
45
249
168
61
255
227
90
254
228
89
254
228
89
254
228
89
254
230
90
255
230
90
255
230
90
255
230
91
241
225
121
42
66
146
16
55
156
16
55
156
15
55
156
15
55
156
15
55
156
15
55
156
15
55
156
15
55
156
15
55
156
15
55
156
15
55
156
15
55
156
44
59
144
239
170
84
240
169
85
62
63
134
45
59
147
45
59
147
58
62
133
221
110
63
238
108
36
238
110
34
254
166
52
255
168
51
255
168
51
255
168
51
254
166
54
238
115
29
255
168
50
255
170
49
255
170
49
255
170
49
253
167
55
144
44
34
142
35
37
143
35
37
142
36
34
147
37
31
193
64
45
195
64
45
195
64
45
195
64
45
195
64
45
195
64
45
196
64
44
194
64
46
194
64
47
193
64
47
197
65
46
197
65
46
197
65
46
197
65
47
195
73
47
252
223
93
255
227
89
250
176
54
253
172
52
251
174
52
254
226
90
249
227
104
255
230
91
249
227
106
59
75
137
16
56
162
15
55
156
16
55
156
15
55
156
15
55
156
15
55
156
15
55
156
15
55
156
15
55
156
15
55
156
15
55
156
15
55
156
14
55
156
16
56
156
43
60
146
43
60
146
17
55
155
15
55
156
15
55
157
17
55
157
57
56
137
229
107
51
238
107
32
237
109
34
239
108
34
239
108
34
239
108
33
238
114
25
254
166
50
255
170
49
255
170
49
255
170
49
255
170
49
253
167
57
147
51
30
140
37
36
141
36
37
141
36
36
144
36
36
189
66
46
193
66
45
195
64
45
195
64
45
195
64
45
195
64
45
195
64
45
194
65
45
194
65
45
194
65
45
195
66
46
197
65
46
197
65
46
197
65
46
191
83
47
250
225
93
255
230
90
254
226
88
250
175
51
253
171
48
245
171
69
72
78
125
243
225
120
243
225
121
44
66
147
16
57
157
16
55
156
16
55
156
15
55
156
15
55
156
15
55
156
15
55
156
15
55
156
15
55
156
15
55
156
15
55
156
15
55
156
14
55
156
13
56
158
15
55
157
15
55
157
15
55
156
15
55
156
15
55
156
15
55
158
42
55
147
228
108
52
238
107
32
238
106
35
240
105
35
240
105
34
239
110
34
254
166
50
251
172
48
255
170
49
255
170
49
255
170
49
255
170
48
255
171
45
252
164
63
143
45
34
141
36
37
141
36
37
143
35
36
147
37
32
189
65
49
196
64
43
195
64
45
195
64
45
195
64
45
195
64
45
194
65
45
194
65
45
194
65
45
195
66
46
197
65
46
197
65
46
195
75
46
251
222
97
254
230
91
255
230
90
254
230
89
253
228
87
250
175
53
239
168
84
44
60
145
43
65
147
43
65
147
17
55
156
16
55
156
16
55
156
16
55
156
15
55
156
15
55
156
15
55
156
15
55
156
15
55
156
15
55
156
15
55
156
15
55
156
15
55
156
15
55
156
15
55
156
15
55
156
15
55
156
15
55
156
15
55
156
14
55
158
15
55
158
58
56
138
229
108
50
238
107
32
240
105
35
240
105
34
241
110
30
254
164
55
255
170
49
254
170
49
255
170
49
255
170
49
255
170
49
255
170
49
255
170
49
253
167
55
148
52
29
141
37
34
141
36
37
141
36
35
141
36
34
146
39
29
190
65
48
194
64
46
195
64
45
195
64
45
195
64
45
195
64
45
195
64
45
195
64
45
197
65
46
197
65
46
196
66
45
194
84
45
253
226
90
255
228
90
255
230
90
254
230
90
255
230
89
249
226
103
59
70
135
17
55
156
15
55
156
16
55
156
15
55
156
15
55
156
15
55
156
15
55
156
15
55
156
15
55
156
15
55
156
15
55
156
15
55
156
15
55
156
15
55
156
15
55
156
15
55
156
15
55
156
15
55
156
15
55
156
15
55
156
15
55
156
15
55
156
15
55
156
41
56
147
223
106
68
237
107
34
238
107
32
240
105
34
239
108
34
254
164
55
253
171
52
254
170
49
255
170
49
255
170
49
255
170
49
255
170
49
255
170
49
255
170
49
255
170
49
252
166
55
148
52
30
142
36
36
141
36
35
141
36
35
141
37
33
148
37
32
191
64
48
195
64
45
195
64
45
195
64
45
195
64
45
195
64
45
195
64
45
196
65
45
197
65
46
194
84
45
251
222
94
254
231
87
255
228
90
255
230
90
255
230
90
255
230
90
249
228
106
58
75
136
17
55
156
15
55
156
15
55
156
15
55
156
15
55
156
15
55
156
15
55
156
15
55
156
15
55
156
15
55
156
15
55
156
15
55
156
15
55
156
15
55
156
15
55
156
15
55
156
15
55
156
15
55
156
15
55
156
15
55
156
15
55
156
15
55
156
15
55
156
43
56
144
232
106
52
238
107
32
239
107
32
242
105
31
237
111
31
255
167
50
255
169
50
255
170
49
255
170
49
255
170
49
255
170
49
255
170
49
255
170
49
255
170
49
255
170
49
255
170
51
252
165
62
148
51
33
148
38
35
141
36
37
141
36
36
141
37
35
145
38
32
191
64
48
193
64
47
195
64
45
195
64
45
195
64
45
195
65
45
196
66
45
194
83
46
253
221
97
255
229
89
252
232
88
255
230
90
255
229
90
255
230
90
254
230
90
253
230
91
243
225
120
43
65
147
14
56
156
14
56
156
15
55
156
15
55
156
15
55
156
15
55
156
15
55
156
15
55
156
15
55
156
15
55
156
15
55
156
15
55
156
15
55
156
15
55
156
15
55
156
15
55
156
15
55
156
15
55
156
15
55
156
15
55
156
15
55
156
15
55
156
41
56
146
222
107
66
229
108
52
229
108
50
236
111
32
253
166
56
255
169
49
255
169
49
255
170
49
255
170
49
255
170
49
255
170
49
255
170
49
255
170
49
255
170
49
255
170
49
255
170
50
255
170
50
253
164
56
230
113
38
148
47
32
141
36
35
141
36
34
141
36
34
144
37
34
146
37
34
192
64
47
193
64
46
195
64
45
195
64
45
194
83
46
253
218
102
255
229
91
255
228
88
252
232
88
255
230
91
255
230
90
255
230
90
254
230
90
253
230
90
249
227
107
45
65
146
14
56
156
13
56
156
15
55
156
15
55
156
15
55
156
15
55
156
15
55
156
15
55
156
15
55
156
15
55
156
15
55
156
15
55
156
15
55
156
15
55
156
15
55
156
15
55
156
15
55
156
15
55
156
15
55
156
15
55
156
15
55
156
15
55
156
16
55
154
41
56
146
42
55
145
60
60
134
247
167
70
255
170
51
255
170
51
255
170
51
255
170
47
255
170
46
255
170
49
255
170
49
255
170
49
255
170
49
255
170
49
255
170
49
254
170
49
254
167
50
255
170
49
254
168
51
252
164
63
148
52
31
145
45
33
141
37
36
143
36
35
143
36
35
145
36
36
147
37
35
195
69
43
195
79
41
253
221
97
255
229
91
255
228
89
247
181
56
254
226
88
255
229
90
254
230
90
253
230
90
255
230
90
255
230
90
249
227
107
45
65
147
14
56
157
13
56
156
15
55
156
15
55
156
15
55
156
15
55
156
15
55
156
15
55
156
15
55
156
15
55
156
15
55
156
15
55
156
15
55
156
15
55
156
15
55
156
15
55
156
15
55
156
15
55
156
15
55
156
15
55
156
15
55
156
15
55
156
15
55
156
15
55
156
17
55
156
60
65
134
247
169
68
255
170
51
255
170
51
255
170
51
255
170
47
255
170
46
255
170
49
255
170
49
255
170
49
255
170
49
255
170
49
255
168
49
254
165
52
234
119
28
254
168
50
255
170
48
255
171
45
253
167
58
252
165
58
148
52
31
146
45
33
146
45
33
147
39
34
149
51
32
252
164
57
251
169
53
255
228
89
255
230
90
255
229
90
254
226
89
247
181
56
255
228
89
253
230
90
253
230
90
255
230
90
255
230
90
248
227
107
44
65
147
14
56
157
13
56
156
15
55
156
15
55
156
15
55
156
15
55
156
15
55
156
15
55
156
15
55
156
15
55
156
15
55
156
15
55
156
15
55
156
15
55
156
15
55
156
15
55
156
15
55
156
15
55
156
15
55
156
15
55
156
15
55
156
15
55
156
15
55
156
15
55
156
42
61
146
239
170
85
254
170
49
255
170
49
255
170
49
255
170
51
255
170
49
255
170
49
255
170
49
255
170
49
255
170
49
255
170
49
252
168
54
236
112
30
239
110
32
254
166
52
255
170
49
255
170
49
255
170
48
255
170
49
255
170
49
253
168
55
252
168
56
252
166
57
235
111
39
252
166
59
255
170
51
253
172
52
255
226
89
255
229
90
255
230
90
255
230
90
255
228
89
255
230
90
255
230
90
255
230
90
255
230
90
255
230
90
247
228
107
43
66
147
13
56
157
13
56
156
15
55
156
15
55
156
15
55
156
15
55
156
15
55
156
15
55
156
15
55
156
15
55
156
15
55
156
15
55
156
15
55
156
15
55
156
15
55
156
15
55
156
15
55
156
15
55
156
15
55
156
15
55
156
15
55
156
15
55
156
15
55
156
15
55
156
44
60
146
247
170
71
255
170
46
255
170
49
255
170
49
255
170
49
255
170
49
255
170
49
255
170
50
255
168
50
255
168
51
254
166
52
236
112
30
242
105
34
239
110
31
255
168
51
255
170
49
255
170
49
255
170
49
255
170
49
255
170
49
255
170
49
253
171
49
253
169
50
236
115
33
253
169
52
255
170
51
255
170
51
252
173
53
255
228
89
255
230
90
255
230
90
255
230
90
249
228
104
255
230
91
255
230
90
255
230
90
255
230
90
247
228
107
44
66
146
13
56
156
13
56
156
15
55
156
15
55
156
15
55
156
15
55
156
15
55
156
15
55
156
15
55
156
15
55
156
15
55
156
15
55
156
15
55
156
15
55
156
15
55
156
15
55
156
15
55
156
15
55
156
15
55
156
15
55
156
15
55
156
15
55
156
15
55
156
15
55
157
44
61
146
247
170
71
255
172
48
255
172
48
255
172
48
255
171
50
255
171
52
255
168
53
254
166
57
235
112
33
237
109
34
237
109
34
238
106
34
238
108
34
254
165
52
255
169
49
255
169
49
255
169
49
255
170
49
255
170
49
255
170
49
255
170
49
255
170
49
255
170
49
255
168
50
254
170
50
255
170
49
255
170
49
252
173
50
255
227
87
255
230
90
255
230
90
249
227
106
72
83
127
243
225
120
249
227
105
255
230
90
255
230
91
243
224
121
43
65
146
15
55
156
15
55
156
15
55
156
15
55
156
15
55
156
15
55
156
15
55
156
15
55
156
15
55
156
15
55
156
15
55
156
15
55
156
15
55
156
15
55
156
15
55
156
15
55
156
15
55
156
15
55
156
15
55
156
15
55
156
15
55
156
15
55
156
15
55
156
15
55
156
44
60
146
247
170
71
255
172
49
255
172
49
254
172
50
247
171
66
247
167
72
225
114
49
235
110
35
238
107
34
238
107
34
238
106
34
239
106
34
237
109
34
255
167
51
255
169
49
255
170
49
255
170
49
255
170
49
255
170
49
255
170
49
255
170
49
255
170
49
255
170
49
255
170
49
255
170
49
255
170
49
255
170
49
252
173
50
255
227
87
255
230
90
255
230
90
249
227
106
60
75
137
44
66
147
60
75
138
243
225
119
249
227
107
61
75
137
16
56
162
14
56
156
15
55
156
15
55
156
15
55
156
15
55
156
15
55
156
15
55
156
15
55
156
15
55
156
15
55
156
15
55
156
15
55
156
15
55
156
15
55
156
15
55
156
15
55
156
15
55
156
15
55
156
15
55
156
15
55
156
15
55
156
15
55
156
15
55
156
15
55
156
42
61
142
236
172
84
244
172
73
244
171
73
236
171
86
60
65
134
45
60
144
59
56
135
231
106
54
239
105
35
238
107
32
239
106
31
244
103
31
239
110
31
255
167
50
255
170
49
253
171
49
253
171
49
255
170
49
255
170
49
255
170
49
255
170
49
251
172
49
254
167
53
255
170
49
255
170
49
255
170
49
255
170
49
252
173
50
255
227
87
255
230
90
255
230
90
255
230
90
243
225
121
42
67
147
16
57
156
60
75
134
233
225
131
43
67
147
15
57
157
14
56
156
15
55
156
15
55
156
15
55
156
15
55
156
15
55
156
15
55
156
15
55
156
15
55
156
15
55
156
15
55
156
15
55
156
15
55
156
15
55
156
15
55
156
15
55
156
15
55
156
15
55
156
15
55
156
15
55
156
15
55
156
15
55
156
15
55
156
16
55
156
19
54
157
43
60
142
44
59
147
44
60
148
41
62
143
17
55
157
16
55
156
43
55
145
230
106
55
240
105
35
239
106
33
239
107
31
240
108
31
254
165
57
255
169
49
255
170
49
253
171
49
253
172
49
255
170
49
255
170
49
255
170
49
255
170
49
254
167
53
239
112
30
254
166
51
255
170
49
255
170
49
255
170
49
252
173
50
255
225
87
255
230
90
255
230
90
255
230
90
243
225
121
42
67
147
14
57
156
16
57
157
40
68
144
17
57
156
16
57
157
15
55
156
15
55
156
15
55
156
15
55
156
15
55
156
15
55
156
15
55
156
15
55
156
15
55
156
15
55
156
15
55
156
15
55
156
15
55
156
15
55
156
15
55
156
15
55
156
15
55
156
15
55
156
15
55
156
15
55
156
15
55
156
15
55
156
15
55
156
15
55
156
15
55
156
15
55
156
15
55
156
15
55
156
15
55
156
15
55
156
15
55
156
41
55
146
222
106
71
232
105
57
232
105
57
232
105
57
229
109
52
254
167
53
254
171
49
253
171
49
255
170
49
255
170
49
255
170
49
255
170
49
255
170
49
255
170
49
254
165
55
238
108
34
239
110
32
255
168
51
253
171
49
255
170
49
254
171
49
252
174
51
255
228
89
255
230
90
249
227
105
60
75
138
15
56
155
13
56
156
13
56
156
13
56
156
15
55
156
15
55
156
15
55
156
15
55
156
15
55
156
15
55
156
15
55
156
15
55
156
15
55
156
15
55
156
15
55
156
15
55
156
15
55
156
15
55
156
15
55
156
15
55
156
15
55
156
15
55
156
15
55
156
15
55
156
15
55
156
15
55
156
15
55
156
15
55
156
15
55
156
15
55
156
15
55
156
15
55
156
15
55
156
15
55
156
15
55
156
15
55
156
15
55
156
16
55
155
41
56
144
42
56
143
42
56
143
43
56
142
71
65
124
247
169
68
253
171
49
253
171
49
255
170
49
255
170
49
255
170
49
255
170
49
255
170
49
254
166
52
235
114
33
240
107
35
242
108
34
254
165
53
255
170
49
255
170
49
255
170
49
253
172
50
255
228
89
255
230
90
249
227
107
45
66
147
13
56
156
13
56
156
15
55
156
15
55
156
15
55
156
15
55
156
15
55
156
15
55
156
15
55
156
15
55
156
15
55
156
15
55
156
15
55
156
15
55
156
15
55
156
15
55
156
15
55
156
15
55
156
15
55
156
15
55
156
15
55
156
15
55
156
15
55
156
15
55
156
15
55
156
15
55
156
15
55
156
15
55
156
15
55
156
15
55
156
15
55
156
15
55
156
15
55
156
15
55
156
15
55
156
15
55
156
15
55
156
15
55
156
15
55
156
15
55
156
15
55
156
43
60
145
239
170
83
253
171
49
255
170
49
255
170
49
255
170
49
255
170
49
255
170
49
255
170
50
247
166
70
228
114
51
231
108
52
238
108
34
241
107
35
239
112
34
255
168
50
255
170
49
254
170
49
252
173
50
255
228
89
255
230
91
242
225
117
43
67
144
13
56
156
15
55
156
15
55
156
16
55
156
15
55
156
15
55
156
15
55
156
15
55
156
15
55
156
15
55
156
15
55
156
15
55
156
15
55
156
15
55
156
15
55
156
15
55
156
15
55
156
15
55
156
15
55
156
15
55
156
15
55
156
15
55
156
15
55
156
15
55
156
15
55
156
15
55
156
15
55
156
15
55
156
15
55
156
15
55
156
15
55
156
15
55
156
15
55
156
15
55
156
15
55
156
15
55
156
15
55
156
15
55
156
15
55
156
15
55
156
15
55
156
44
60
144
247
171
70
253
171
49
255
170
49
255
170
49
255
170
49
254
170
50
247
169
67
239
168
83
61
62
136
43
53
146
58
55
132
229
109
51
240
107
37
231
110
52
247
166
68
254
170
50
254
171
49
251
173
50
255
227
89
249
227
106
60
76
134
16
57
158
12
57
156
14
55
156
16
55
156
18
54
156
15
55
156
15
55
156
15
55
156
15
55
156
15
55
156
15
55
156
15
55
156
15
55
156
15
55
156
15
55
156
15
55
156
15
55
156
15
55
156
15
55
156
15
55
156
15
55
156
15
55
156
15
55
156
15
55
156
15
55
156
15
55
156
15
55
156
15
55
156
15
55
156
15
55
156
15
55
156
15
55
156
15
55
156
15
55
156
15
55
156
15
55
156
15
55
156
15
55
156
15
55
156
15
55
156
15
55
156
15
55
156
44
60
144
247
171
70
253
171
49
253
171
46
254
170
49
247
169
67
239
167
84
59
66
134
42
61
145
17
55
155
16
55
156
40
56
146
221
109
69
225
107
68
60
57
136
59
67
131
233
172
79
254
170
52
253
173
52
254
227
86
241
225
120
43
67
148
14
57
158
15
55
156
15
55
156
16
55
156
16
55
156
15
55
156
15
55
156
15
55
156
15
55
156
15
55
156
15
55
156
15
55
156
15
55
156
15
55
156
15
55
156
15
55
156
15
55
156
15
55
156
15
55
156
15
55
156
15
55
156
15
55
156
15
55
156
15
55
156
15
55
156
15
55
156
15
55
156
15
55
156
15
55
156
15
55
156
15
55
156
15
55
156
15
55
156
15
55
156
15
55
156
15
55
156
15
55
156
15
55
156
15
55
156
15
55
156
15
55
156
15
55
156
43
60
145
239
170
87
245
170
69
245
170
69
238
169
81
60
63
134
43
59
144
16
55
156
15
55
156
15
55
156
15
55
157
14
56
157
40
56
146
42
55
146
18
56
158
19
56
158
57
67
132
239
168
83
252
172
55
242
223
119
58
76
138
17
56
158
16
56
159
15
55
156
15
55
156
16
55
156
16
55
156
15
55
156
15
55
156
15
55
156
15
55
156
15
55
156
15
55
156
15
55
156
15
55
156
15
55
156
15
55
156
15
55
156
15
55
156
15
55
156
15
55
156
15
55
156
15
55
156
15
55
156
15
55
156
15
55
156
15
55
156
15
55
156
15
55
156
15
55
156
15
55
156
15
55
156
15
55
156
15
55
156
15
55
156
15
55
156
15
55
156
15
55
156
15
55
156
15
55
156
15
55
156
15
55
156
15
55
156
15
55
156
16
55
155
43
60
145
44
60
144
44
60
144
43
60
145
16
55
155
15
55
156
15
55
156
15
55
156
16
55
156
16
55
156
16
55
157
16
55
156
15
55
156
15
57
157
17
57
157
19
56
156
59
65
136
228
169
98
58
70
138
17
56
158
16
56
159
16
56
159
15
55
156
15
55
156
15
55
156
15
55
156
15
55
156
15
55
156
15
55
156
15
55
156
15
55
156
15
55
156
15
55
156
15
55
156
15
55
156
15
55
156
15
55
156
15
55
156
15
55
156
15
55
156
15
55
156
15
55
156
15
55
156
15
55
156
15
55
156
15
55
156
15
55
156
15
55
156
15
55
156
15
55
156
15
55
156
15
55
156
15
55
156
15
55
156
15
55
156
15
55
156
15
55
156
15
55
156
15
55
156
15
55
156
15
55
156
15
55
156
15
55
156
15
55
156
15
55
156
15
55
156
15
55
156
15
55
156
15
55
156
15
55
156
16
55
156
16
55
156
16
55
156
16
55
156
16
55
156
15
55
156
14
56
156
16
57
157
16
57
157
18
56
157
22
54
161
42
61
147
18
56
158
16
56
159
16
56
159
16
56
159
15
55
156
15
55
156
15
55
156
15
55
156
15
55
156
15
55
156
15
55
156
15
55
156
15
55
156
15
55
156
15
55
156
15
55
156
15
55
156
15
55
156
15
55
156
15
55
156
15
55
156
15
55
156
15
55
156
15
55
156
15
55
156
15
55
156
15
55
156
15
55
156
15
55
156
15
55
156
15
55
156
15
55
156
15
55
156
15
55
156
15
55
156
15
55
156
15
55
156
15
55
156
15
55
156
15
55
156
15
55
156
15
55
156
15
55
156
15
55
156
15
55
156
15
55
156
15
55
156
15
55
156
15
55
156
15
55
156
15
55
156
15
55
156
15
55
156
15
55
156
15
55
156
15
55
156
15
55
156
15
55
156
15
55
156
15
55
156
15
55
156
15
55
156
15
55
156
15
55
156
15
55
156
15
55
156
15
55
156
15
55
156
15
55
156
15
55
156
15
55
156
15
55
156
15
55
156
15
55
156
15
55
156
15
55
156
15
55
156
15
55
156
15
55
156
15
55
156
15
55
156
15
55
156
15
55
156
15
55
156
15
55
156
15
55
156
15
55
156
15
55
156
15
55
156
15
55
156
15
55
156
15
55
156
15
55
156
15
55
156
15
55
156
15
55
156
15
55
156
15
55
156
15
55
156
15
55
156
15
55
156
15
55
156
15
55
156
15
55
156
15
55
156
15
55
156
15
55
156
15
55
156
15
55
156
15
55
156
15
55
156
15
55
156
15
55
156
15
55
156
15
55
156
15
55
156
15
55
156
15
55
156
15
55
156
15
55
156
15
55
156
15
55
156
15
55
156
15
55
156
15
55
156
15
55
156
15
55
156
15
55
156
15
55
156
15
55
156
15
55
156
15
55
156
15
55
156
15
55
156
15
55
156
15
55
156
15
55
156
15
55
156
15
55
156
15
55
156
15
55
156
15
55
156
15
55
156
15
55
156
15
55
156
15
55
156
15
55
156
15
55
156
15
55
156
15
55
156
15
55
156
15
55
156
15
55
156
15
55
156
15
55
156
15
55
156
15
55
156
15
55
156
15
55
156
15
55
156
15
55
156
15
55
156
15
55
156
15
55
156
15
55
156
15
55
156
15
55
156
15
55
156
15
55
156
15
55
156
15
55
156
15
55
156
15
55
156
15
55
156
15
55
156
15
55
156
15
55
156
15
55
156
15
55
156
15
55
156
15
55
156
15
55
156
15
55
156
15
55
156
15
55
156
15
55
156
15
55
156
15
55
156
15
55
156
15
55
156
15
55
156
15
55
156
15
55
156
15
55
156
15
55
156
15
55
156
15
55
156
15
55
156
15
55
156
15
55
156
15
55
156
15
55
156
15
55
156
15
55
156
15
55
156
15
55
156
15
55
156
15
55
156
15
55
156
15
55
156
15
55
156
15
55
156
15
55
156
15
55
156
15
55
156
15
55
156
15
55
156
15
55
156
15
55
156
15
55
156
15
55
156
15
55
156
15
55
156
15
55
156
15
55
156
15
55
156
15
55
156
15
55
156
15
55
156
15
55
156
15
55
156
15
55
156
15
55
156
15
55
156
15
55
156
15
55
156
15
55
156
15
55
156
15
55
156
15
55
156
15
55
156
15
55
156
15
55
156
15
55
156
15
55
156
15
55
156
15
55
156
15
55
156
15
55
156
15
55
156
15
55
156
15
55
156
15
55
156
15
55
156
15
55
156
15
55
156
15
55
156
15
55
156
15
55
156
15
55
156
15
55
156
15
55
156
15
55
156
15
55
156
15
55
156
15
55
156
15
55
156
15
55
156
15
55
156
15
55
156
15
55
156
15
55
156
15
55
156
15
55
156
15
55
156
15
55
156
