P3
# Created using libcpp-common
64 64
255
13	55	156		14	54	155		15	56	153		15	57	153		14	59	153		12	58	153		12	58	153		16	59	151		15	58	151		16	59	150		15	59	152		15	57	153		16	56	153		15	55	154		16	55	154		18	57	153		15	57	155		16	56	153		17	56	153		18	56	154		19	56	155		16	56	156		21	56	154		20	55	153		17	53	155		18	54	152		14	54	156		14	54	156		18	58	152		17	55	152		15	53	154		14	55	154		15	58	155		16	60	153		13	57	155		17	57	154		18	57	156		16	56	155		20	58	153		25	62	152		18	57	153		18	58	153		21	58	151		21	56	153		18	53	154		20	55	155		19	56	154		17	53	155		16	55	154		14	54	154		14	53	154		16	54	154		17	55	154		17	56	153		15	57	153		13	57	153		14	58	152		16	60	151		16	60	151		16	59	150		14	58	152		11	56	153		13	57	152		12	56	154
14	55	155		15	55	155		15	55	154		15	57	153		14	58	153		14	57	152		16	58	152		16	59	152		17	59	152		15	57	152		16	56	153		14	55	155		13	56	155		14	55	155		15	55	154		17	56	154		15	56	155		15	56	154		15	56	154		15	57	155		15	56	155		13	55	156		18	55	155		19	56	154		18	53	155		17	53	154		13	54	157		13	55	157		13	56	155		13	56	156		14	55	154		13	55	156		14	56	155		13	56	155		12	56	156		15	57	154		17	55	155		16	57	156		15	54	156		15	53	155		13	53	155		14	55	155		16	55	154		17	56	153		16	55	154		19	56	154		19	56	153		17	55	154		17	56	155		14	54	155		15	54	156		16	54	155		18	56	153		17	57	152		16	57	152		14	57	153		16	58	152		15	57	153		16	58	152		15	59	152		14	57	154		13	56	154		15	57	153		14	55	154
15	56	154		15	55	154		15	56	153		16	57	153		16	57	153		17	58	152		16	58	152		16	59	151		15	57	152		15	58	152		17	57	152		16	57	153		15	57	154		14	56	155		14	56	154		15	56	154		15	57	155		14	56	154		14	57	154		13	58	154		12	57	155		11	55	156		16	56	155		22	57	153		17	53	155		16	53	156		12	53	158		11	53	158		12	54	156		12	55	157		12	55	157		11	55	157		10	56	157		10	56	157		13	58	154		14	58	154		16	55	155		17	55	156		12	52	157		11	50	157		10	53	155		10	54	156		12	55	155		12	55	155		12	55	155		12	55	155		14	57	154		16	56	154		15	56	155		14	56	155		15	55	155		14	55	155		16	55	153		18	57	152		17	58	152		17	58	151		14	57	153		17	59	151		19	59	150		15	59	152		14	58	153		15	58	153		15	57	152		14	57	153
16	56	153		15	55	154		15	55	153		16	57	153		15	57	153		15	56	153		16	57	153		15	57	153		14	56	153		15	56	153		16	58	152		16	58	153		14	56	154		12	54	156		14	55	155		16	57	154		15	57	154		15	57	154		15	57	154		13	58	154		12	58	155		13	56	155		15	56	154		23	58	153		20	56	154		17	53	155		13	54	157		14	55	156		15	57	154		14	56	155		14	55	154		16	56	155		13	58	155		12	56	156		14	57	154		17	59	154		17	53	155		23	59	152		17	54	155		16	52	157		14	51	155		13	55	155		14	54	154		15	54	153		12	55	155		11	54	156		13	55	155		14	57	154		16	58	154		15	57	154		15	56	154		14	55	155		15	55	154		16	56	154		17	57	153		17	58	152		16	58	152		13	58	153		14	58	152		14	59	153		14	59	153		15	58	152		14	57	153		11	55	156
16	56	153		16	55	153		15	56	153		14	57	153		14	58	153		15	57	152		17	57	153		15	57	153		15	56	153		17	57	152		19	58	151		19	58	152		15	56	154		14	55	155		16	56	154		15	56	154		15	57	154		16	57	154		15	57	154		14	57	154		13	57	154		11	55	155		14	54	155		23	58	152		20	57	153		16	54	155		15	56	155		18	57	153		17	57	153		16	57	153		18	57	152		17	56	153		15	58	154		12	55	155		16	55	153		19	57	152		23	56	152		22	57	153		17	55	154		18	54	154		19	57	152		18	56	154		17	55	153		16	55	153		13	56	154		11	55	155		13	57	154		15	57	153		18	58	152		16	57	154		14	55	155		14	55	155		14	55	154		16	57	152		15	57	153		16	58	152		18	58	152		15	57	153		15	58	152		13	58	153		14	58	153		16	58	152		16	57	152		15	56	154
13	56	154		15	56	153		14	56	153		13	57	153		15	58	152		15	58	152		14	56	154		15	58	153		17	58	152		16	56	153		18	57	152		18	58	152		16	56	153		15	56	154		16	57	153		14	56	154		15	57	154		15	57	153		14	56	154		13	54	155		14	55	154		13	52	155		15	52	155		18	57	153		16	56	155		14	54	155		16	56	154		20	57	152		20	57	152		18	56	153		18	56	153		15	54	154		14	54	154		14	53	153		16	53	154		21	57	151		28	60	150		31	60	149		32	61	149		33	63	150		21	58	154		20	56	153		17	55	153		13	54	154		12	54	154		11	54	155		13	54	155		16	56	153		18	58	152		16	58	153		13	55	155		12	54	155		15	56	154		16	57	153		15	58	154		17	59	152		17	57	152		15	56	153		16	58	152		13	59	153		14	59	153		17	59	152		15	57	153		15	57	153
16	57	153		17	57	153		14	55	154		14	56	154		15	57	153		15	56	154		16	56	154		16	56	153		16	57	153		16	56	153		19	57	153		17	58	153		18	58	153		18	56	154		18	55	154		16	55	155		17	56	154		17	56	153		17	56	153		16	55	154		16	54	154		16	53	154		20	56	153		27	60	151		35	66	148		28	65	150		41	70	147		44	69	143		26	60	150		21	56	152		20	56	152		19	55	153		17	57	153		18	56	152		19	54	154		33	59	149		247	227	115		252	235	106		248	229	113		241	218	116		61	80	140		21	56	153		17	55	154		15	53	153		11	52	155		12	52	156		15	56	154		16	57	154		18	57	153		13	55	154		12	54	155		14	54	154		16	55	153		16	55	154		15	55	154		15	55	154		17	56	153		14	57	153		14	58	153		15	58	152		16	57	153		16	57	153		16	56	153		15	55	155
17	57	153		17	57	153		15	56	155		14	57	154		14	57	154		14	56	155		17	56	154		17	57	154		15	56	155		14	55	156		17	56	154		16	55	154		17	57	154		16	56	155		15	57	157		15	55	156		17	56	155		18	57	154		16	56	154		15	56	154		16	55	155		18	55	153		32	60	150		246	214	115		252	230	101		250	229	104		249	224	105		252	227	103		251	226	105		55	75	141		36	64	148		28	60	150		20	56	154		19	55	155		24	59	152		38	63	146		251	233	103		253	233	97		252	234	103		251	230	105		244	204	102		48	73	146		19	55	154		20	56	152		15	53	155		15	53	157		18	56	154		18	56	153		18	57	153		18	57	153		15	55	154		14	54	155		15	53	155		15	54	155		15	54	155		14	53	155		16	55	154		16	57	153		16	57	154		17	59	152		16	56	153		17	56	154		17	56	153		16	56	154
15	56	153		17	57	153		14	55	155		15	55	154		15	57	154		15	57	154		15	56	155		16	57	154		13	55	156		15	55	155		19	56	153		18	56	154		16	56	155		15	56	155		14	56	156		18	58	154		16	56	154		18	58	153		15	56	155		13	56	155		15	56	155		23	56	152		33	61	151		250	216	106		253	229	94		253	239	97		253	235	99		254	236	102		254	238	93		251	227	100		249	221	101		236	210	114		42	63	144		41	64	141		23	55	151		41	62	144		252	230	102		253	232	97		252	232	102		252	228	101		250	224	102		240	214	115		31	64	149		24	59	146		17	53	152		17	53	154		23	57	152		20	56	153		17	55	155		17	54	154		14	54	156		15	55	156		16	55	155		16	54	154		15	53	155		14	53	155		15	54	154		15	55	155		16	57	154		15	57	154		15	56	154		15	56	154		15	55	154		14	54	156
12	53	156		15	54	155		15	55	155		15	56	154		14	55	155		16	55	154		16	56	154		16	56	155		14	54	156		15	54	156		16	55	155		17	54	154		16	55	155		15	55	156		17	56	155		16	56	155		16	55	155		17	56	154		18	57	154		15	58	155		18	57	154		23	57	152		26	59	151		53	77	141		245	210	105		252	233	101		251	233	104		253	233	97		254	235	92		252	230	96		251	229	98		253	230	94		250	228	105		250	230	112		72	91	133		76	76	133		252	232	99		253	233	99		252	231	102		253	236	102		251	234	102		252	230	99		249	229	108		58	78	135		16	54	153		22	57	151		25	58	152		22	56	153		17	55	155		12	54	157		12	54	157		15	55	155		15	54	155		15	53	156		15	53	155		12	52	156		15	54	154		15	55	155		14	56	156		14	57	154		15	55	155		15	54	155		14	55	155		14	54	156
14	53	155		16	54	155		16	53	155		15	54	154		15	55	154		15	54	154		18	56	154		19	56	154		15	54	156		15	52	156		17	53	154		17	52	154		14	53	156		14	53	157		17	55	155		13	53	157		13	53	157		18	53	154		20	56	153		20	57	153		41	63	144		39	59	143		38	59	143		47	67	140		73	91	130		239	212	108		251	228	100		254	225	88		254	229	85		253	227	89		253	235	88		253	226	89		253	227	94		254	230	93		250	219	99		248	215	95		254	239	96		253	235	95		253	233	99		253	237	96		253	238	93		253	233	91		253	236	96		248	223	94		54	73	130		56	72	129		215	177	112		47	67	143		21	55	153		12	53	157		13	52	157		16	55	154		18	55	154		16	53	155		14	53	155		12	51	156		15	54	154		15	55	154		14	55	155		14	56	155		14	53	156		14	53	156		13	54	156		15	55	155
13	51	155		12	53	154		12	53	156		12	54	155		11	54	154		11	54	155		13	54	155		15	53	156		14	53	156		15	54	155		15	56	154		12	52	156		13	52	157		13	53	157		15	55	156		15	53	157		13	52	157		17	52	154		45	66	137		237	168	78		250	175	65		248	171	70		246	180	66		239	164	70		242	171	72		252	216	88		254	226	95		254	226	89		254	228	87		254	227	91		254	235	93		254	230	93		254	236	94		254	236	95		252	221	94		251	209	72		253	227	96		253	226	91		253	225	91		254	233	93		254	234	92		254	234	91		252	233	103		252	223	94		247	177	83		247	164	67		251	180	68		236	159	88		31	56	144		16	54	151		20	56	148		21	58	150		22	58	152		17	54	155		16	55	154		15	56	153		14	55	154		14	55	154		16	57	153		14	55	155		13	54	156		14	55	154		13	55	155		14	57	154
13	54	154		13	55	154		14	54	154		14	56	153		13	56	153		12	55	155		12	56	155		15	55	155		15	55	155		14	56	155		15	55	155		13	55	156		14	53	157		17	55	156		24	56	152		16	51	155		18	55	154		42	65	145		199	135	96		249	175	58		252	169	56		252	166	58		251	182	50		248	173	58		251	170	52		254	213	75		254	222	92		254	228	98		254	230	94		254	227	95		254	231	94		254	228	93		254	226	89		253	229	94		254	232	96		253	230	92		253	233	89		253	228	84		254	230	83		254	232	82		253	232	85		254	237	87		253	234	94		252	227	96		253	193	70		251	166	55		253	185	57		247	178	76		46	60	141		33	62	145		33	63	144		35	67	144		38	62	143		25	56	149		18	54	152		16	55	153		15	56	153		15	57	154		17	58	153		15	57	154		17	56	154		15	57	154		16	58	153		15	58	155
15	55	154		15	55	155		16	55	155		15	57	154		15	57	154		15	57	155		15	56	155		16	56	156		16	56	156		16	57	154		15	55	155		11	52	158		12	52	158		14	53	157		17	55	155		15	53	155		14	52	158		23	56	154		49	68	142		176	122	86		249	163	53		250	166	57		248	168	50		251	171	51		252	171	55		253	174	55		253	216	86		254	228	97		254	229	91		253	230	97		253	231	94		252	226	98		252	228	94		253	230	100		252	229	100		251	230	94		254	236	86		253	236	92		253	233	90		253	235	91		252	229	90		252	231	93		252	233	96		251	225	91		251	207	75		250	167	56		253	174	54		252	189	63		71	78	136		248	226	114		251	231	106		247	224	114		248	228	111		38	60	145		21	57	152		18	57	153		15	56	154		14	56	155		15	56	155		16	56	154		14	54	155		13	54	156		13	55	155		14	55	154
13	55	156		15	54	155		16	55	154		17	58	153		17	59	153		16	58	154		15	56	155		17	56	155		18	56	154		15	57	154		15	56	154		13	54	155		11	51	157		12	52	157		14	54	156		16	55	154		17	56	153		27	59	149		33	60	148		36	62	145		239	175	84		248	168	71		248	171	63		253	181	57		253	179	55		253	177	53		253	220	87		254	225	90		254	227	83		254	228	92		253	230	93		253	225	94		253	228	96		253	228	94		252	222	94		251	225	90		253	231	89		253	227	90		253	230	94		253	232	94		253	230	89		253	234	96		252	234	98		252	228	93		252	221	88		252	194	65		254	194	66		254	216	80		252	221	95		253	227	93		252	228	97		252	230	98		253	234	101		227	211	120		28	60	150		22	59	152		17	55	154		13	55	156		16	57	154		16	57	154		16	56	154		14	55	155		12	53	156		13	54	155
12	53	157		14	53	157		15	54	155		16	58	153		17	61	152		15	59	154		15	56	155		16	56	155		15	55	155		16	55	155		17	57	153		18	56	154		14	54	156		14	54	156		26	61	149		29	66	149		53	90	146		251	228	107		252	221	96		253	225	97		254	224	95		254	228	88		254	219	84		254	221	87		254	217	83		254	219	83		254	226	90		254	225	85		254	220	79		254	226	85		254	233	87		254	231	87		254	228	91		254	230	91		254	227	90		253	230	90		253	235	91		253	225	91		253	228	90		253	232	90		254	229	88		254	233	90		253	233	92		254	229	90		254	228	92		253	220	91		254	224	85		254	228	89		253	230	95		254	232	97		254	238	101		254	235	97		254	230	94		251	228	106		31	61	149		21	58	151		15	55	154		12	55	156		14	53	156		13	55	156		14	54	156		15	54	155		11	52	158		13	53	155
15	54	156		16	53	156		15	52	156		14	54	155		15	57	154		13	55	155		15	54	156		16	53	155		14	52	158		17	54	155		19	55	153		19	55	154		18	55	155		25	60	152		63	88	133		236	200	116		252	229	104		254	234	94		254	233	90		254	233	91		254	229	87		254	234	86		254	231	88		254	229	90		254	229	88		254	226	87		254	227	90		254	223	81		254	215	74		254	215	75		254	232	79		254	229	81		254	224	86		254	226	87		254	221	87		248	210	80		250	214	81		252	217	92		246	198	79		245	205	86		253	223	88		253	231	92		252	231	91		253	228	85		253	231	88		253	222	88		254	231	88		254	234	95		254	235	98		254	234	95		254	237	98		254	231	96		254	232	93		253	227	104		36	64	147		19	55	154		14	54	156		12	54	156		14	52	158		14	55	156		15	55	155		20	54	153		16	54	155		15	54	156
12	53	156		14	53	156		19	56	155		15	55	154		13	55	155		13	54	155		13	51	157		15	52	155		18	53	157		19	56	153		21	59	151		24	59	151		29	60	151		48	77	143		244	216	111		253	231	100		253	229	98		254	234	88		254	235	90		254	236	91		254	233	88		254	234	87		254	227	88		254	230	88		254	231	89		254	231	88		254	228	90		254	226	83		254	217	80		254	218	81		254	229	81		254	230	85		253	224	88		251	214	89		246	193	86		184	83	52		187	67	45		187	72	51		191	80	53		189	82	55		247	201	88		250	219	89		249	214	85		252	215	87		253	227	94		253	225	91		254	230	92		254	235	93		253	226	96		254	224	93		254	233	90		254	228	92		254	232	98		245	217	114		40	70	145		21	57	152		16	54	155		15	54	155		16	53	156		14	56	155		13	57	156		17	56	153		17	54	155		14	56	155
12	53	156		13	53	157		18	53	155		14	53	155		14	54	155		14	54	154		14	51	156		17	51	156		18	53	156		21	57	153		27	62	149		46	73	141		251	229	108		251	231	106		252	230	99		254	231	98		254	233	91		254	225	79		254	228	88		254	236	90		254	232	91		254	236	94		254	239	99		254	237	97		254	239	95		254	237	93		254	233	93		254	232	89		254	232	89		254	228	91		254	228	90		254	227	90		233	183	87		188	78	55		191	78	48		184	65	41		191	59	37		188	65	46		193	67	42		195	66	43		186	73	57		200	86	53		223	134	61		250	202	85		253	226	90		253	226	94		254	231	92		254	237	97		254	232	95		254	226	93		254	234	90		254	231	94		254	236	105		247	225	111		43	72	143		21	58	152		17	54	155		15	54	154		15	54	155		13	57	155		12	57	155		15	55	155		14	54	156		13	55	156
16	57	156		17	56	156		19	54	155		15	53	155		13	55	155		13	55	155		14	52	156		17	54	156		17	54	156		21	58	153		33	63	149		248	223	114		251	231	106		249	228	106		250	226	95		250	213	82		252	201	67		253	190	62		254	192	64		254	212	76		254	222	82		254	222	85		254	229	88		254	231	93		254	237	98		254	238	99		254	235	96		254	236	98		254	236	99		252	224	84		251	222	90		250	208	88		184	79	53		191	66	43		189	69	49		191	65	44		190	63	44		184	70	50		183	66	47		186	62	46		182	68	52		193	72	45		196	78	49		241	191	82		251	224	94		251	220	86		254	235	95		254	241	99		254	237	94		254	234	93		254	237	96		254	235	99		253	237	108		249	224	113		31	64	148		19	56	153		18	56	155		17	55	154		17	54	155		17	57	154		13	55	154		16	54	155		19	56	155		14	55	157
15	54	154		16	54	155		18	54	154		15	53	155		13	54	155		13	54	156		16	53	156		18	55	155		25	58	151		36	64	147		244	178	76		250	184	66		247	182	64		243	181	63		246	182	64		247	169	61		252	167	53		253	165	50		252	168	49		253	171	51		253	173	51		253	178	57		254	198	69		254	217	80		254	222	85		254	232	92		254	229	90		254	233	100		253	230	93		251	212	75		188	79	52		187	74	52		187	66	47		192	64	44		185	66	47		186	68	48		186	60	45		184	64	51		180	64	49		185	63	48		188	69	50		187	69	49		188	67	46		185	68	49		245	194	86		253	226	88		253	227	91		253	234	96		254	235	96		254	225	87		254	226	88		254	225	90		253	226	101		78	89	137		24	58	152		18	56	154		18	57	153		17	54	155		16	53	155		17	55	153		14	54	154		17	55	154		20	57	154		16	56	155
13	53	156		15	53	156		16	53	156		17	53	155		16	55	154		13	53	156		15	53	156		18	53	155		25	59	151		59	75	141		249	172	62		251	171	60		250	169	55		246	165	57		250	178	62		250	172	58		252	163	49		253	163	49		253	163	47		253	169	47		254	167	45		253	173	49		254	178	54		254	183	58		254	200	69		254	223	85		254	226	88		253	226	95		247	209	80		191	80	52		182	63	48		190	64	51		191	67	51		192	66	47		189	63	49		189	69	52		185	59	47		181	54	44		178	57	46		179	61	47		185	65	46		186	63	44		185	62	45		186	60	44		186	83	61		246	217	87		251	226	92		251	230	94		254	239	93		254	232	92		254	229	91		254	229	94		247	222	112		38	65	146		23	56	153		16	55	154		15	54	155		13	53	156		14	55	155		17	56	153		14	53	155		19	56	153		20	57	154		16	58	154
14	54	155		15	54	156		14	52	157		17	53	156		15	54	155		14	53	156		16	53	156		20	56	154		35	64	147		244	173	89		251	173	65		251	171	65		248	170	60		245	167	66		246	175	75		247	169	64		249	166	50		251	167	54		252	168	47		252	171	48		253	169	53		253	169	51		253	175	50		254	173	52		253	170	51		251	169	58		249	185	63		244	199	78		203	98	48		178	68	49		183	65	47		190	65	49		187	65	48		188	69	51		191	66	49		189	66	51		181	60	53		182	57	45		177	58	44		170	55	44		173	66	52		170	55	41		180	57	44		186	61	44		195	74	48		235	187	74		250	230	91		251	231	94		254	239	98		254	235	97		254	231	94		252	228	103		62	79	144		30	61	151		24	58	154		18	57	155		16	56	155		15	56	155		15	57	155		15	54	155		16	56	154		21	58	152		18	58	154		14	58	155
16	53	154		20	56	153		19	55	153		19	55	153		16	54	154		15	54	155		17	54	155		19	57	153		17	55	155		27	58	148		41	63	143		45	62	140		41	57	141		36	57	143		43	59	140		68	64	118		226	120	54		244	146	49		249	150	50		251	163	49		251	164	51		251	165	49		253	175	50		253	172	48		252	168	53		251	168	53		247	167	56		233	145	54		215	106	49		177	66	51		179	59	46		193	62	48		183	61	47		180	60	48		188	67	51		194	69	50		189	60	53		181	55	48		169	56	48		152	45	44		148	54	51		145	47	42		168	51	40		181	52	42		188	65	45		193	83	51		246	218	84		251	232	98		254	236	96		254	235	96		254	231	95		249	213	109		33	64	152		23	59	154		19	56	153		19	58	154		17	57	154		15	56	156		13	55	156		15	56	154		12	56	156		14	57	155		15	57	154		12	55	155
17	52	153		16	54	154		18	55	153		16	55	154		14	55	154		13	54	155		15	53	155		17	54	154		14	51	156		17	55	153		23	56	151		24	56	150		22	51	152		22	52	150		65	62	126		211	93	55		226	91	43		234	98	41		245	103	39		245	110	38		246	119	39		250	137	39		252	165	45		254	168	46		253	166	49		252	168	48		246	162	47		164	56	41		179	57	44		179	55	47		178	49	38		198	61	39		187	52	37		188	47	34		194	59	41		187	58	45		179	49	43		156	44	42		144	42	44		138	36	36		139	37	35		132	36	38		137	38	41		151	39	40		184	54	45		191	59	44		191	74	49		250	225	90		253	231	98		252	218	87		250	214	97		72	83	133		33	62	151		29	62	151		20	57	153		17	55	154		18	55	154		15	56	155		16	56	154		17	58	151		15	56	153		15	56	155		16	56	154		13	56	154
15	52	154		13	53	155		15	54	154		15	54	154		14	55	155		14	55	156		16	54	155		19	57	153		16	55	155		19	56	153		24	57	152		26	58	151		32	57	149		53	59	134		207	95	60		222	93	41		228	94	39		228	92	39		241	102	35		246	105	35		240	101	38		251	127	37		252	158	43		253	167	46		251	154	49		250	146	47		217	100	42		145	42	36		179	54	40		189	62	45		184	56	39		200	68	41		192	60	41		193	53	41		192	60	45		189	63	48		163	51	49		141	44	46		142	46	46		141	40	37		137	36	37		138	39	41		137	38	42		148	44	41		173	54	42		189	60	41		193	75	46		249	218	84		252	225	91		252	201	75		251	174	60		245	166	67		234	170	74		82	79	126		34	62	145		22	58	152		19	57	153		17	56	155		16	56	156		14	57	155		15	56	154		15	57	154		15	54	154		13	55	156
15	53	153		13	52	155		13	54	154		14	55	154		12	54	155		14	55	155		17	55	154		17	55	155		15	56	156		23	59	153		30	57	150		61	61	128		216	103	63		221	97	53		234	99	44		242	109	43		234	101	42		240	104	41		250	140	43		251	152	42		250	143	46		251	167	50		252	173	50		253	173	49		252	163	52		249	160	55		240	139	49		143	46	37		167	51	43		193	70	54		186	67	52		194	66	48		193	67	46		186	60	49		190	64	51		187	66	52		146	46	51		126	37	44		135	43	46		135	38	40		129	37	42		134	43	43		129	40	42		129	36	39		153	45	42		185	62	45		189	75	50		248	207	85		252	222	85		252	179	67		251	155	54		251	164	55		250	169	55		241	162	71		64	72	130		24	58	151		19	57	154		18	57	154		17	55	155		16	56	156		16	54	155		15	54	155		17	56	154		14	56	156
14	54	154		15	54	154		15	55	154		15	55	154		14	56	154		15	56	154		16	56	155		16	57	155		14	56	156		23	60	152		51	58	133		237	111	59		246	122	43		240	102	40		243	118	45		249	140	44		248	140	43		249	144	46		253	163	42		251	160	42		248	153	45		250	163	47		252	170	50		253	173	52		252	166	54		245	158	58		137	53	43		129	36	34		154	43	39		186	62	51		178	59	49		185	58	47		187	62	44		183	58	48		194	63	50		181	58	47		139	40	46		117	31	39		122	36	39		126	33	34		125	35	38		128	36	34		122	33	33		123	33	34		137	41	40		172	56	42		186	62	43		181	79	58		251	216	85		252	193	75		251	177	63		252	180	58		251	183	58		250	175	60		245	169	73		47	69	139		24	60	151		15	57	155		15	54	156		19	58	154		17	56	155		17	54	154		17	53	154		16	57	155
16	56	153		15	54	155		15	54	155		16	56	154		16	56	154		16	57	154		14	55	155		15	55	155		13	53	156		21	56	151		80	73	116		247	123	48		249	122	40		250	146	43		249	158	46		252	161	44		251	158	47		253	170	53		252	165	47		248	161	46		249	166	52		250	169	47		252	166	48		253	169	52		250	162	52		234	140	56		128	34	30		125	30	29		147	36	29		182	57	42		187	63	45		180	61	45		183	64	46		179	57	48		185	59	45		175	55	43		139	39	43		124	31	35		127	35	33		125	31	30		125	31	33		129	33	31		126	35	37		120	32	36		135	42	42		176	57	45		187	63	44		185	68	48		250	218	94		251	220	95		251	217	92		251	218	86		250	215	87		251	211	81		248	184	77		52	69	134		21	59	151		16	57	155		17	56	156		18	57	154		16	56	154		19	55	152		16	52	154		20	57	151
14	56	154		16	55	154		14	55	155		13	55	155		13	53	156		14	55	155		15	56	154		17	56	154		15	54	155		29	59	143		234	119	66		251	138	47		252	147	40		251	161	45		251	164	50		253	171	49		254	168	49		254	170	53		254	173	51		251	173	49		252	180	55		252	175	53		253	165	47		253	167	52		252	164	52		242	149	55		132	37	30		125	31	29		147	39	33		175	55	43		187	65	50		177	60	48		179	64	49		174	56	50		172	54	47		165	55	46		142	41	41		129	33	36		129	35	34		130	34	30		124	32	34		131	36	33		132	36	36		127	36	39		140	45	44		175	54	43		182	59	43		184	67	46		253	221	89		254	227	92		253	224	92		253	224	84		253	219	83		254	224	81		254	220	80		251	221	100		62	92	147		21	57	154		18	56	156		17	55	155		14	57	155		13	54	156		15	55	154		17	58	153
13	55	155		13	55	156		11	55	157		12	56	156		12	55	156		14	56	155		15	56	155		15	54	155		14	53	155		23	58	151		68	72	124		250	163	58		252	162	49		251	176	51		250	156	52		253	169	52		254	166	52		254	162	48		254	170	50		252	172	49		250	167	51		251	165	50		253	171	48		254	172	54		253	175	56		247	171	57		138	48	35		128	33	31		153	44	38		181	60	49		186	62	48		182	61	51		183	63	48		178	55	45		177	58	48		166	54	50		138	40	44		127	34	37		124	35	37		126	33	32		120	29	31		125	35	33		125	33	34		121	31	36		144	45	45		182	55	45		189	57	42		181	70	52		254	230	91		254	226	86		254	231	94		254	232	89		254	228	88		254	226	86		254	225	90		252	230	110		59	82	140		18	55	155		18	56	155		17	57	154		12	57	154		11	55	156		10	53	157		12	56	157
13	54	156		13	53	156		12	55	157		13	56	155		13	57	155		14	56	155		15	56	155		18	55	155		21	56	153		44	66	143		248	164	68		252	165	63		251	180	56		249	179	56		251	175	53		253	172	52		253	167	48		254	161	46		254	165	45		252	164	42		250	161	44		252	167	48		253	172	52		253	173	51		252	173	54		247	175	57		133	43	35		124	35	33		140	38	35		181	61	43		172	60	47		185	66	48		191	65	46		181	54	46		182	57	47		177	55	47		136	39	44		123	33	39		124	32	35		125	30	31		121	28	31		130	33	33		132	37	38		124	32	36		144	45	45		181	60	46		188	62	44		189	71	47		254	227	95		254	221	94		254	229	95		253	225	92		253	226	93		254	229	89		254	229	91		253	233	97		248	227	104		34	61	147		17	57	154		14	58	155		10	56	156		14	57	155		18	58	152		15	56	154
12	52	156		15	53	156		15	55	155		14	54	155		13	54	155		13	55	155		17	56	153		24	57	152		42	69	142		247	164	73		253	174	58		253	171	58		253	175	50		250	167	51		253	179	53		253	170	52		253	170	50		254	167	49		254	167	48		253	167	48		252	163	49		253	170	51		253	181	56		254	179	55		253	181	53		247	172	55		135	41	34		121	32	34		126	33	37		154	46	42		172	62	48		188	70	48		188	63	47		180	57	51		182	60	54		171	53	52		145	41	48		132	35	42		128	33	36		128	32	34		128	34	39		133	36	38		130	38	40		128	36	39		149	45	44		175	55	47		187	66	49		188	76	53		254	228	97		254	222	92		254	225	91		253	224	88		254	224	81		254	227	91		254	225	88		254	233	96		251	229	102		39	63	143		16	54	155		11	52	157		10	53	157		12	55	156		16	56	154		14	53	155
13	54	155		14	53	156		18	56	152		18	54	152		17	54	153		15	55	153		19	56	153		23	57	152		249	168	65		252	174	60		253	176	57		254	169	56		253	173	51		250	162	49		253	175	54		252	164	50		253	160	49		254	170	50		254	174	51		253	168	53		253	166	49		253	171	53		252	172	57		254	178	58		253	179	58		249	182	65		131	44	42		121	37	43		127	36	44		144	43	45		179	62	50		191	69	49		184	65	52		185	62	52		183	66	56		180	61	52		152	46	51		129	36	44		127	35	37		128	35	37		125	35	41		122	33	39		127	40	44		144	44	43		166	52	45		187	61	48		190	66	49		189	70	52		254	232	102		254	228	93		254	229	93		254	228	95		254	229	88		254	232	92		254	235	96		254	237	98		249	226	107		40	65	145		20	56	153		14	54	155		11	56	155		17	58	155		17	57	154		14	55	155
15	56	154		12	53	157		14	54	156		16	55	155		15	54	155		15	55	155		18	55	154		36	64	144		251	170	62		253	174	56		254	178	56		254	174	54		253	171	50		252	168	51		254	174	49		253	171	46		253	164	47		254	169	51		254	171	47		253	167	47		254	167	49		253	169	49		251	165	51		254	165	55		252	173	54		240	150	56		127	40	39		123	35	39		129	30	34		138	34	37		175	52	43		187	67	51		183	63	55		185	62	57		184	65	58		183	61	55		168	56	55		135	41	47		135	40	43		125	35	41		125	30	36		121	28	33		125	36	42		146	41	39		178	54	43		190	63	48		194	69	48		193	69	49		253	218	90		254	229	91		254	232	93		254	229	95		253	231	98		253	233	97		254	230	95		254	236	98		250	231	105		40	64	142		26	58	152		19	56	154		14	55	156		18	58	155		16	57	154		16	57	154
14	54	155		15	54	156		15	54	156		17	54	154		17	54	153		18	55	153		26	57	150		229	158	82		253	179	59		252	171	54		253	173	58		254	174	53		253	161	50		251	162	53		253	169	52		252	169	48		252	169	51		254	172	51		254	173	47		253	175	49		253	174	52		253	169	49		251	162	46		252	159	54		247	139	51		229	114	45		139	42	36		124	33	36		122	28	32		127	31	35		148	37	37		174	53	46		182	55	47		182	54	49		180	56	54		182	58	55		178	61	58		156	49	51		155	46	45		136	40	44		128	32	38		129	31	38		148	41	46		169	45	42		195	61	43		192	62	46		194	67	46		192	71	47		253	224	92		254	232	92		254	230	92		254	226	91		252	227	94		253	235	99		254	232	90		254	239	93		250	227	104		30	60	146		23	58	153		17	55	155		15	54	155		19	57	155		21	58	152		18	58	153
14	52	155		17	53	154		15	54	155		17	54	154		18	54	153		19	55	151		38	61	144		243	173	75		250	182	72		246	168	65		248	170	67		249	167	66		248	160	60		246	163	62		251	159	52		249	159	49		253	173	51		253	174	55		253	175	51		253	174	50		253	174	53		252	163	51		252	170	45		253	176	51		252	164	53		251	163	53		232	141	53		126	40	36		123	31	31		131	34	36		137	36	38		168	52	44		181	60	44		177	52	46		182	54	49		188	62	51		186	63	55		183	66	53		171	59	47		143	47	46		144	42	46		150	44	45		165	50	47		174	50	45		202	69	46		198	65	44		196	74	49		248	192	68		254	224	90		254	226	88		254	228	93		254	225	88		253	229	93		252	234	102		253	231	95		254	234	95		248	221	110		21	54	151		19	56	154		14	54	155		12	52	156		14	53	156		15	55	155		15	57	155
14	50	155		22	52	152		20	54	153		18	53	154		21	54	153		22	56	153		44	66	145		237	175	86		239	184	89		45	63	138		47	59	138		40	58	140		66	68	123		226	117	62		247	124	43		250	139	41		251	149	44		252	150	49		252	149	45		252	144	43		252	144	49		251	145	48		252	173	51		253	173	54		252	164	51		251	160	47		244	164	53		130	39	36		121	30	31		137	38	40		123	33	40		152	43	39		174	60	46		177	52	48		186	54	49		194	62	48		196	67	51		194	67	47		187	66	48		180	60	47		174	50	47		185	55	49		183	55	50		182	52	46		195	65	47		191	62	46		192	72	52		250	214	82		253	217	84		253	202	74		253	185	65		253	189	61		250	212	82		248	225	106		253	234	102		252	232	104		62	73	131		19	51	155		20	56	155		16	56	153		15	54	154		16	54	154		16	56	153		16	57	154
14	51	155		16	53	155		19	54	153		18	55	153		19	55	153		19	56	153		22	60	152		33	62	148		30	61	149		21	56	153		20	53	154		15	51	157		16	51	155		53	62	132		228	107	54		236	94	38		247	116	36		249	110	37		247	105	35		248	122	43		251	131	45		251	150	47		252	166	49		253	171	52		252	163	47		252	169	48		246	153	53		150	47	40		125	32	32		132	36	35		129	34	37		135	34	37		162	51	44		175	52	49		178	49	50		188	57	50		192	61	50		193	63	49		192	62	49		191	61	46		183	58	50		186	63	52		192	59	51		191	58	46		195	66	48		189	64	48		193	77	50		249	221	86		253	228	93		253	210	79		251	174	59		251	166	52		243	178	71		86	89	127		249	225	114		244	219	121		34	61	145		18	55	154		16	55	155		14	54	155		13	54	154		15	54	154		14	53	154		14	56	155
13	54	155		15	54	155		17	55	154		13	55	156		13	57	155		13	57	155		13	56	155		18	57	153		18	56	154		14	55	156		15	51	156		14	51	156		15	51	154		31	57	149		211	106	56		235	100	33		242	103	33		248	100	33		236	96	42		236	110	49		249	154	48		250	164	52		252	163	45		254	174	48		253	169	42		253	161	43		251	172	46		237	145	52		137	45	35		125	31	31		128	31	34		134	33	37		141	41	43		162	43	43		172	48	46		185	53	43		187	57	44		182	60	46		181	63	50		186	62	49		182	65	55		182	64	53		189	68	51		189	59	43		191	64	47		191	68	47		245	204	80		252	229	96		254	234	91		254	224	86		252	212	82		251	183	60		237	168	74		37	65	145		38	67	143		39	65	143		25	61	149		20	58	153		17	57	155		15	58	155		14	56	153		15	55	154		14	53	154		16	55	155
11	53	157		13	53	156		14	53	156		11	54	157		11	56	156		12	56	156		12	54	156		15	56	154		18	57	153		12	52	157		13	51	157		15	53	156		18	54	154		52	59	140		229	106	52		238	101	35		246	102	34		249	102	34		246	123	37		248	144	45		252	160	49		252	176	53		252	167	49		254	174	49		253	171	49		252	163	49		250	167	53		234	149	57		125	40	33		123	30	30		123	28	30		125	29	33		132	33	37		151	37	39		161	42	42		180	54	44		194	62	47		191	60	45		186	60	46		186	61	49		188	64	51		185	62	48		188	63	49		184	54	43		190	60	46		189	76	57		241	205	83		249	230	96		254	240	94		254	232	91		252	229	98		250	221	97		73	85	131		20	53	156		22	54	153		21	54	153		15	56	154		16	58	155		13	55	157		13	57	156		13	55	155		14	54	155		12	52	157		17	55	154
13	54	156		15	53	156		12	51	157		11	52	157		11	55	156		11	54	157		13	54	156		17	55	154		16	52	154		13	51	157		18	52	155		26	55	152		39	58	146		223	102	66		243	105	39		239	102	41		248	108	35		249	105	34		248	135	45		251	159	50		253	174	53		253	182	54		253	172	50		254	174	50		253	171	50		252	166	49		250	168	51		244	171	59		193	93	45		135	38	30		132	36	33		131	31	33		130	29	31		142	35	35		147	36	36		166	44	39		185	55	47		187	56	46		185	53	40		186	57	41		184	63	48		179	57	44		189	61	49		192	61	46		196	73	50		235	172	78		251	232	93		251	237	95		254	240	95		254	235	94		252	231	99		251	218	92		47	80	139		20	54	155		21	56	153		23	56	152		13	54	157		14	55	157		12	53	160		12	56	157		12	54	156		14	53	156		14	53	156		18	55	156
17	57	153		18	56	154		12	52	157		11	54	157		11	55	156		14	55	155		15	54	155		22	57	152		19	54	153		12	51	157		15	53	155		17	52	154		46	60	138		237	110	49		244	101	33		242	105	35		249	112	34		252	126	37		252	157	48		253	173	53		253	176	53		253	182	54		254	175	45		254	175	46		254	169	47		254	168	44		252	170	49		248	174	54		244	162	50		234	131	46		135	46	39		126	37	39		122	34	34		128	31	31		141	37	34		154	40	33		171	49	41		185	51	40		187	54	37		185	57	38		182	59	42		181	61	40		187	58	43		194	67	47		249	190	83		252	219	93		253	234	99		253	237	99		254	236	92		254	236	90		254	236	93		254	228	85		251	219	101		30	62	149		23	57	151		20	54	153		14	53	156		17	56	155		15	53	156		13	55	154		12	54	155		14	56	154		13	54	155		14	56	156
12	54	157		13	54	155		13	55	156		10	54	157		13	56	155		15	56	155		16	55	155		23	58	151		17	53	154		13	53	157		15	54	155		17	55	154		29	56	144		216	103	66		232	103	50		227	106	48		248	127	36		253	154	43		253	163	50		254	169	50		254	173	47		254	181	51		254	178	47		254	174	43		254	175	51		254	176	48		253	173	49		250	179	52		249	174	48		249	162	48		230	124	49		197	81	43		146	50	41		145	40	37		139	35	38		134	34	36		148	39	39		161	44	39		176	49	39		187	57	41		191	61	42		181	62	43		194	75	49		245	175	79		254	219	92		253	215	89		253	223	89		254	235	94		254	229	90		254	223	85		254	228	87		254	227	89		253	226	103		41	67	148		24	56	152		19	54	154		13	52	155		15	55	155		16	55	153		13	57	153		13	56	153		15	57	153		13	55	154		12	55	157
11	52	156		10	50	157		10	51	157		11	53	157		12	55	155		14	57	154		11	53	157		14	53	157		15	52	156		14	55	156		14	53	156		13	50	159		18	53	156		37	55	146		33	55	144		37	60	139		241	155	63		253	174	53		253	174	51		253	174	51		253	172	53		253	166	54		254	181	46		254	180	49		254	169	54		254	175	48		253	168	49		252	179	48		250	168	41		252	165	42		250	174	48		248	160	47		193	94	53		149	57	52		150	49	47		136	41	42		136	37	38		143	37	35		149	39	36		150	49	47		182	66	50		184	69	44		248	188	69		253	230	97		253	218	91		253	208	85		254	217	83		254	229	90		254	233	89		254	234	88		254	233	92		254	229	95		253	228	108		28	62	152		22	57	153		16	54	156		12	53	157		16	56	155		13	54	156		12	57	155		11	57	156		12	55	156		12	54	157		12	54	159
13	54	154		15	54	155		14	53	156		14	55	155		12	55	156		13	55	156		12	53	157		13	52	158		15	54	156		13	52	157		14	53	157		16	55	157		15	54	157		19	52	154		21	55	151		60	77	136		246	164	59		253	172	53		251	169	55		252	171	49		254	175	44		254	171	46		254	178	46		254	175	45		254	167	51		254	170	45		254	165	46		252	160	44		249	146	42		251	138	41		251	170	50		251	172	52		248	162	50		246	157	51		247	169	56		146	57	42		131	46	42		130	44	40		133	42	37		146	52	50		245	159	59		249	169	56		253	213	84		254	230	95		254	220	89		254	217	81		254	216	79		253	226	95		254	230	88		254	233	84		254	232	89		254	223	87		254	226	101		35	68	146		20	56	153		16	57	155		15	57	153		16	55	155		12	53	156		12	55	154		14	57	154		15	54	154		14	54	155		14	52	158
12	53	156		13	54	158		15	54	156		16	55	154		13	55	156		13	54	156		13	52	157		15	51	157		16	54	156		17	53	155		22	56	153		18	56	155		17	56	156		21	55	155		29	61	151		243	162	79		252	173	51		253	167	53		253	172	55		253	168	50		254	170	46		254	167	44		254	171	48		254	174	47		254	164	48		254	166	47		254	161	46		248	122	42		245	121	40		251	152	44		252	170	50		252	172	50		252	172	51		253	177	49		252	182	56		248	178	54		243	159	55		246	155	54		236	113	48		250	160	60		253	172	55		252	172	54		254	207	79		254	227	89		254	225	91		254	228	88		254	225	86		252	218	95		254	237	89		254	235	85		254	235	88		254	232	91		253	226	111		35	66	145		20	56	152		15	56	154		14	56	154		16	55	154		13	54	155		12	54	154		15	54	153		16	54	154		14	54	155		15	54	158
12	52	157		11	51	160		14	51	157		17	53	155		15	54	155		14	53	156		15	52	156		16	53	157		17	56	155		20	58	153		20	54	154		19	52	156		17	54	157		19	54	157		28	61	152		249	173	75		253	179	50		254	176	51		253	180	55		251	179	58		252	180	57		253	172	50		253	166	53		254	167	53		253	152	47		252	142	42		252	130	44		246	109	37		247	124	39		250	159	44		251	168	48		252	172	49		252	169	53		253	167	52		253	180	53		251	177	52		252	169	54		251	163	51		249	144	48		251	167	53		252	173	53		252	167	51		253	182	67		254	219	82		254	232	93		254	235	91		254	233	92		252	221	93		254	235	92		254	237	88		254	240	93		254	235	92		250	219	113		47	73	145		18	53	155		15	53	155		15	55	154		17	55	156		13	55	156		12	55	154		13	52	154		16	53	156		14	55	157		17	56	158
17	52	153		18	52	155		16	52	156		16	52	156		15	53	154		16	54	155		18	55	154		21	56	153		19	58	153		18	56	153		19	54	153		16	50	155		18	52	155		25	58	153		38	65	149		241	162	80		251	170	53		253	171	49		252	180	57		251	175	52		253	172	48		251	154	47		252	149	44		253	131	40		252	112	34		252	109	32		251	104	34		245	98	34		250	136	43		252	156	44		252	171	52		253	174	54		252	171	52		253	170	55		252	170	54		249	166	52		252	167	53		251	160	54		250	158	52		252	169	53		253	174	56		253	169	53		253	172	62		254	222	87		254	224	94		254	224	91		253	226	99		103	102	132		253	204	94		254	225	95		254	230	92		254	233	90		249	219	116		34	70	148		16	53	156		15	55	156		12	55	155		13	56	155		15	58	153		13	56	153		13	54	153		14	54	153		13	55	154		14	58	157
14	52	153		15	53	155		14	54	155		14	53	155		14	54	155		14	55	154		18	56	153		21	58	152		18	56	153		14	55	154		14	55	154		13	52	156		14	53	156		21	56	153		47	70	146		250	169	72		253	172	52		253	175	52		252	180	59		248	169	63		247	150	57		233	128	54		242	116	40		249	113	33		248	101	29		251	100	27		251	96	25		247	116	33		251	164	46		253	168	49		253	172	55		253	173	52		253	167	51		253	168	54		252	176	58		251	175	52		252	173	54		253	169	53		253	174	45		253	174	51		254	184	57		254	177	52		254	175	56		254	212	80		254	230	94		253	232	100		252	227	99		50	67	141		66	78	138		73	87	137		243	211	114		253	230	107		62	84	143		19	54	154		17	54	155		15	54	156		11	55	157		13	58	154		16	60	151		14	59	152		13	58	152		12	57	152		12	59	152		12	57	153
14	55	153		14	54	155		14	54	155		15	55	155		15	56	154		13	55	155		16	56	153		17	58	152		16	56	153		14	54	156		15	54	155		13	53	157		13	54	157		15	54	157		38	65	150		249	167	69		253	179	61		250	172	64		246	161	65		62	75	133		45	61	139		60	68	129		229	105	46		238	104	38		240	100	35		247	94	27		247	98	28		246	123	38		252	153	43		253	167	48		251	163	51		252	157	47		251	153	51		252	156	53		253	168	54		253	176	54		253	171	56		253	157	52		253	161	46		251	156	50		254	173	56		254	172	52		253	171	55		253	201	72		253	235	96		253	233	95		253	235	98		246	225	117		52	72	143		26	59	149		38	69	144		228	209	119		38	65	147		26	59	150		19	55	154		16	54	154		11	55	156		12	58	154		12	58	154		12	57	154		13	58	153		11	55	155		10	58	154		10	57	155
14	56	152		13	55	154		14	54	155		14	55	154		14	57	154		13	56	155		13	56	155		16	56	154		14	56	155		11	54	157		12	54	156		12	54	156		11	54	156		13	53	156		14	53	157		32	66	148		42	68	144		37	62	143		40	62	141		19	55	158		22	55	158		40	58	142		231	99	49		244	105	35		240	104	39		243	100	36		245	109	33		249	154	45		252	169	48		253	169	47		252	170	50		252	170	48		251	174	53		253	171	53		253	167	52		253	169	47		252	159	49		251	141	47		249	157	47		251	163	51		253	168	55		254	161	48		253	170	53		253	208	73		253	232	90		253	236	96		253	234	93		250	226	113		42	72	145		20	57	151		20	56	151		32	65	148		21	56	152		20	56	152		15	55	154		14	56	154		13	56	155		13	57	156		12	57	155		13	57	155		13	56	155		10	54	157		10	55	156		12	54	156
14	56	152		15	56	154		15	56	154		14	56	154		16	58	153		17	58	153		16	57	154		15	57	154		14	56	155		11	55	157		13	55	155		13	55	155		12	56	155		12	54	155		13	55	156		18	57	154		22	58	151		20	57	151		22	54	150		16	54	155		13	52	161		27	54	148		213	96	71		237	104	46		228	105	53		218	101	61		222	107	52		248	166	55		251	173	52		252	173	49		251	170	52		250	165	48		250	167	48		253	173	48		250	160	63		251	173	50		251	157	46		248	125	45		243	124	45		251	165	49		253	173	54		253	164	48		253	169	55		252	173	57		252	221	85		252	234	92		252	231	95		60	77	141		22	54	151		15	53	154		14	53	156		15	55	155		17	54	154		19	56	153		15	56	154		14	56	155		13	56	156		13	55	156		14	58	154		14	58	154		13	58	154		13	57	155		10	55	156		11	54	156
14	56	153		12	54	155		14	54	154		14	56	153		15	57	153		15	57	153		16	55	154		16	57	154		13	56	154		13	57	154		15	57	153		14	55	153		14	56	154		14	54	155		14	53	156		17	56	155		18	56	155		17	57	154		14	56	154		14	56	155		14	55	158		16	53	157		32	56	145		40	61	146		24	52	151		32	55	148		82	74	121		245	159	63		251	166	53		253	169	49		250	167	53		252	167	47		250	165	55		253	175	56		253	171	54		249	160	53		249	129	44		249	111	37		244	119	43		250	160	50		253	176	54		253	171	52		253	174	55		252	166	52		252	219	85		252	233	99		250	228	106		42	69	146		16	54	154		12	53	156		13	55	156		13	54	157		13	54	157		14	54	155		14	54	155		14	55	154		16	57	153		15	58	153		15	58	154		13	58	154		15	58	153		13	56	154		12	56	155		13	54	156
14	55	153		13	54	154		12	54	155		12	56	154		12	55	154		15	57	153		16	55	154		15	55	154		13	55	155		12	55	155		14	55	153		13	54	153		13	53	154		15	53	155		14	52	157		14	51	157		17	51	156		15	52	154		13	52	154		14	55	155		15	54	156		15	52	156		22	53	151		29	57	149		21	51	152		45	61	142		235	166	79		250	165	59		252	170	53		253	170	48		251	174	56		251	169	50		251	173	54		252	169	55		249	159	58		235	124	52		236	107	47		244	93	33		243	109	36		240	128	48		250	166	57		251	162	53		251	163	53		250	170	54		252	224	86		253	234	95		248	228	113		36	67	145		19	55	153		12	53	156		14	55	156		17	56	154		16	55	155		15	53	155		13	52	155		12	53	156		15	56	154		14	55	155		16	56	154		14	56	154		14	56	154		13	55	154		13	55	154		15	55	154
12	55	153		13	55	153		12	54	154		11	54	155		11	55	154		15	58	152		15	56	154		16	55	154		15	54	154		12	53	156		12	54	156		13	55	154		14	54	154		17	54	154		19	55	154		18	53	155		17	53	155		16	51	150		15	54	153		14	55	155		17	55	154		17	53	155		16	53	155		16	52	155		15	49	154		39	63	144		249	184	62		251	166	52		253	175	51		253	169	50		251	174	55		250	173	56		248	171	64		240	156	81		58	69	138		39	65	144		67	61	128		230	106	55		240	111	44		211	101	57		247	162	60		249	170	61		249	168	56		248	175	59		252	225	90		250	229	107		48	70	144		21	56	153		15	55	155		12	53	156		16	55	154		18	58	153		17	54	154		14	54	155		13	54	155		14	54	154		15	55	154		16	54	155		15	55	154		14	54	154		15	55	153		13	56	153		13	55	154		17	54	154
12	55	154		13	54	154		13	55	155		12	55	155		13	55	154		16	56	153		16	56	154		16	55	155		15	54	155		15	55	153		16	56	153		14	55	154		16	55	153		18	55	154		19	53	156		18	53	155		19	53	154		16	52	155		15	53	155		15	54	155		17	52	158		18	53	157		20	55	156		16	50	156		16	50	155		29	62	149		242	172	65		249	175	56		252	175	53		252	170	58		241	156	75		242	166	78		59	69	126		25	57	149		18	56	157		24	57	152		38	58	148		213	105	82		211	100	76		70	70	127		61	64	131		238	156	78		248	183	71		247	184	68		251	223	90		245	217	111		37	63	149		24	58	152		16	56	154		13	52	156		15	55	154		17	56	154		16	54	155		17	55	154		16	56	154		16	55	154		15	56	154		17	54	154		17	56	153		15	57	153		16	56	152		16	56	152		17	56	152		19	56	153
14	55	154		15	54	154		13	53	156		14	54	155		14	56	154		16	56	154		17	57	154		14	55	155		15	56	154		15	57	154		14	54	155		13	53	155		13	54	155		15	55	155		14	52	157		17	55	156		17	52	155		14	50	157		11	52	157		12	53	156		12	52	158		15	53	155		20	54	154		20	57	152		26	57	151		36	65	146		240	179	75		244	160	70		244	164	73		239	153	80		56	61	134		45	62	143		20	55	156		14	56	162		15	57	156		18	55	152		19	54	154		38	59	146		34	57	149		29	53	153		24	53	159		62	72	138		236	166	86		242	186	88		242	220	107		46	80	147		19	59	153		19	58	155		15	53	157		13	51	157		16	55	155		19	56	154		17	54	155		18	56	154		15	56	154		15	57	154		14	56	155		13	54	156		13	55	156		13	58	154		12	57	154		14	56	154		14	57	154		14	55	155
15	55	153		15	53	155		16	54	154		16	56	154		15	56	154		16	56	154		15	57	154		14	53	156		14	54	155		13	56	154		14	54	155		12	54	155		13	56	154		16	55	153		15	53	155		15	56	156		18	58	153		14	55	155		10	55	156		11	54	156		12	51	157		16	56	154		16	55	155		12	51	158		18	54	154		21	53	154		36	59	147		40	63	143		33	59	139		33	59	144		23	56	149		24	55	151		14	53	156		12	56	156		12	55	154		17	55	152		16	54	154		23	57	151		17	54	155		15	52	158		19	55	156		26	57	149		51	68	136		221	168	103		83	89	136		23	54	154		18	54	154		20	57	154		16	54	156		12	51	157		17	55	154		17	53	155		16	52	156		17	57	154		16	59	154		16	56	154		15	55	155		13	53	157		15	56	154		15	57	153		14	56	154		13	56	154		13	55	155		14	54	155
12	56	153		13	53	155		14	54	154		14	56	154		12	55	154		14	56	154		14	56	154		13	53	156		12	54	155		12	56	154		13	55	154		12	56	154		12	56	154		14	54	154		14	53	155		13	53	155		14	55	154		14	54	155		11	55	156		11	54	156		10	50	158		13	53	156		12	53	157		11	52	159		12	53	158		14	53	157		14	52	157		18	55	154		18	58	153		17	58	154		16	56	155		16	57	155		12	55	158		10	57	158		12	58	156		16	58	154		18	55	154		19	55	153		14	52	155		14	53	156		13	57	155		17	57	153		22	59	151		38	60	144		29	58	150		16	55	156		17	56	155		17	56	155		13	55	156		11	53	157		13	55	155		13	53	157		17	54	155		16	56	154		15	57	154		14	55	155		16	56	154		14	54	155		15	56	154		14	56	154		13	56	154		12	56	154		12	55	155		15	55	155
13	56	153		14	54	154		14	53	155		13	55	155		13	55	154		14	55	154		15	56	154		15	53	155		13	53	155		12	54	155		13	54	154		14	56	153		13	56	154		14	54	154		15	53	154		11	53	156		13	53	155		13	53	156		12	54	156		11	54	157		12	51	157		13	53	155		13	53	156		13	52	157		14	55	156		16	54	155		13	53	159		15	55	155		15	55	152		13	57	155		13	54	154		14	54	154		10	54	159		10	54	156		11	58	157		16	59	154		18	57	154		20	57	153		16	56	155		13	55	157		11	54	157		13	54	155		14	57	157		21	56	152		19	52	153		17	53	155		16	54	156		18	54	155		17	54	155		12	56	155		16	57	154		16	55	155		16	54	155		14	55	156		14	55	155		15	55	154		16	57	154		17	56	154		16	56	154		13	56	155		12	54	156		12	54	155		14	56	154		17	56	154
13	55	154		14	54	154		13	54	155		12	55	155		13	56	154		16	56	152		16	55	154		14	52	156		12	53	156		12	54	155		13	55	155		14	55	154		13	56	154		14	54	155		15	54	154		13	55	155		15	57	154		14	56	155		14	57	154		11	54	157		12	54	156		13	56	154		12	55	156		13	55	156		15	56	156		15	52	157		14	53	159		15	54	155		15	55	154		13	56	156		12	52	152		15	50	150		12	54	155		12	54	153		10	55	157		14	57	155		16	56	155		20	55	154		16	54	155		11	54	160		12	53	156		14	56	156		12	55	159		18	53	155		17	53	157		15	53	155		16	53	157		14	52	157		15	53	157		14	55	156		16	54	156		17	54	156		16	54	156		14	55	156		12	55	156		15	54	155		15	55	155		15	53	156		14	54	155		13	54	155		12	53	156		13	55	155		12	55	156		14	54	157
14	55	153		15	55	154		14	56	155		12	56	155		14	55	154		15	55	154		17	56	153		14	54	155		12	56	154		14	56	154		14	56	154		14	56	154		15	57	153		16	56	153		16	53	153		12	53	153		15	55	152		15	55	154		14	55	156		12	53	158		12	52	159		12	54	157		11	54	156		12	54	158		17	56	153		18	52	154		16	54	157		15	54	154		14	57	155		13	58	155		12	53	155		13	50	153		12	53	155		11	54	155		8	55	158		12	57	154		14	54	154		19	56	153		16	52	155		13	52	154		9	55	156		11	54	156		14	53	156		19	52	152		18	52	155		19	55	155		15	51	157		13	54	156		14	54	157		16	55	156		16	55	155		17	54	155		16	53	155		13	54	156		16	57	153		18	57	153		19	57	153		18	55	154		16	57	153		15	56	154		15	56	154		16	56	154		16	57	154		16	56	155
13	56	154		15	54	155		13	53	156		11	54	156		12	54	155		11	54	156		12	56	156		17	55	154		15	55	154		14	57	154		13	58	153		12	57	154		13	58	153		15	58	153		16	55	153		13	54	153		15	56	152		14	55	153		13	55	154		12	54	156		9	51	157		10	53	156		11	54	155		10	51	158		14	54	155		14	51	155		18	56	153		19	57	152		15	59	153		11	52	156		11	52	155		12	52	155		11	55	158		10	53	156		8	53	157		11	54	154		11	51	154		15	56	153		17	57	153		15	55	154		10	58	158		10	56	158		13	54	155		16	55	154		14	52	156		13	53	159		13	53	157		13	52	155		16	54	154		16	55	154		17	55	154		20	56	153		17	54	153		12	53	156		15	57	153		19	57	152		15	57	155		14	55	156		13	55	155		14	57	154		13	56	155		11	56	155		11	57	155		12	57	155
